<svg xmlns="http://www.w3.org/2000/svg" xmlns:xlink="http://www.w3.org/1999/xlink" width="500" zoomAndPan="magnify" viewBox="0 0 375 374.999991" height="500" preserveAspectRatio="xMidYMid meet" version="1.0"><defs><g/><clipPath id="4c23f67baa"><path d="M 98.675781 26.734375 L 276.425781 26.734375 L 276.425781 205 L 98.675781 205 Z M 98.675781 26.734375 " clip-rule="nonzero"/></clipPath><clipPath id="488f4cef33"><path d="M 107 210 L 206 210 L 206 348.484375 L 107 348.484375 Z M 107 210 " clip-rule="nonzero"/></clipPath><clipPath id="0a0fc93372"><path d="M 174 210 L 273 210 L 273 348.484375 L 174 348.484375 Z M 174 210 " clip-rule="nonzero"/></clipPath></defs><rect x="-37.5" width="450" fill="#ffffff" y="-37.499999" height="449.999989" fill-opacity="1"/><rect x="-37.5" width="450" fill="#ffffff" y="-37.499999" height="449.999989" fill-opacity="1"/><g clip-path="url(#4c23f67baa)"><path fill="#b4b4b4" d="M 250.503906 178.613281 L 239.660156 180.003906 L 236.042969 190.324219 L 225.148438 189.429688 L 219.464844 198.773438 L 208.992188 195.632812 L 201.492188 203.589844 L 191.902344 198.339844 L 182.910156 204.5625 L 174.621094 197.433594 L 164.53125 201.652344 L 157.90625 192.957031 L 147.160156 194.984375 L 142.488281 185.097656 L 131.554688 184.847656 L 129.039062 174.207031 L 118.398438 171.691406 L 118.148438 160.757812 L 108.265625 156.082031 L 110.292969 145.339844 L 101.597656 138.710938 L 105.8125 128.621094 L 98.6875 120.332031 L 104.90625 111.339844 L 99.660156 101.746094 L 107.617188 94.246094 L 104.476562 83.773438 L 113.816406 78.089844 L 112.921875 67.191406 L 123.242188 63.574219 L 124.632812 52.730469 L 135.476562 51.339844 L 139.09375 41.019531 L 149.988281 41.914062 L 155.671875 32.570312 L 166.144531 35.710938 L 173.644531 27.753906 L 183.234375 33.003906 L 192.226562 26.78125 L 200.515625 33.910156 L 210.605469 29.691406 L 217.230469 38.390625 L 227.976562 36.359375 L 232.648438 46.246094 L 243.582031 46.496094 L 246.097656 57.136719 L 256.738281 59.65625 L 256.988281 70.585938 L 266.871094 75.261719 L 264.84375 86.003906 L 273.539062 92.632812 L 269.324219 102.722656 L 276.449219 111.015625 L 270.230469 120.003906 L 275.476562 129.597656 L 267.523438 137.097656 L 270.660156 147.570312 L 261.320312 153.253906 L 262.214844 164.152344 L 251.894531 167.769531 Z M 250.503906 178.613281 " fill-opacity="1" fill-rule="nonzero"/></g><path fill="#ffffff" d="M 237.929688 163.253906 L 232.59375 168.0625 L 226.785156 172.28125 L 220.566406 175.871094 L 214.007812 178.792969 L 207.179688 181.011719 L 200.15625 182.503906 L 193.011719 183.257812 L 185.832031 183.257812 L 178.691406 182.503906 L 171.667969 181.011719 L 164.839844 178.792969 L 158.277344 175.871094 L 152.058594 172.28125 L 146.25 168.0625 L 140.914062 163.253906 L 136.109375 157.917969 L 131.890625 152.109375 L 128.300781 145.890625 L 125.378906 139.328125 L 123.160156 132.5 L 121.667969 125.476562 L 120.914062 118.332031 L 120.914062 111.152344 L 121.667969 104.011719 L 123.160156 96.984375 L 125.378906 90.15625 L 128.300781 83.59375 L 131.890625 77.375 L 136.109375 71.566406 L 140.914062 66.230469 L 146.25 61.425781 L 152.058594 57.203125 L 158.277344 53.613281 L 164.839844 50.691406 L 171.667969 48.472656 L 178.691406 46.980469 L 185.832031 46.230469 L 193.011719 46.230469 L 200.15625 46.980469 L 207.179688 48.472656 L 214.007812 50.691406 L 220.566406 53.613281 L 226.785156 57.203125 L 232.59375 61.425781 L 237.929688 66.230469 L 242.734375 71.566406 L 246.957031 77.375 L 250.546875 83.59375 L 253.46875 90.15625 L 255.6875 96.984375 L 257.179688 104.011719 L 257.929688 111.152344 L 257.929688 118.332031 L 257.179688 125.476562 L 255.6875 132.5 L 253.46875 139.328125 L 250.546875 145.890625 L 246.957031 152.109375 L 242.734375 157.917969 Z M 237.929688 163.253906 " fill-opacity="1" fill-rule="nonzero"/><path fill="#b4b4b4" d="M 234.785156 160.109375 L 229.847656 164.558594 L 224.46875 168.464844 L 218.714844 171.789062 L 212.640625 174.492188 L 206.320312 176.546875 L 199.820312 177.929688 L 193.210938 178.625 L 186.5625 178.625 L 179.953125 177.929688 L 173.449219 176.546875 L 167.128906 174.492188 L 161.058594 171.789062 L 155.300781 168.464844 L 149.925781 164.558594 L 144.984375 160.109375 L 140.539062 155.171875 L 136.628906 149.792969 L 133.308594 144.035156 L 130.605469 137.964844 L 128.550781 131.640625 L 127.167969 125.140625 L 126.472656 118.527344 L 126.472656 111.882812 L 127.167969 105.269531 L 128.550781 98.769531 L 130.605469 92.445312 L 133.308594 86.375 L 136.628906 80.617188 L 140.539062 75.238281 L 144.984375 70.300781 L 149.925781 65.851562 L 155.300781 61.945312 L 161.058594 58.621094 L 167.128906 55.917969 L 173.449219 53.863281 L 179.953125 52.480469 L 186.5625 51.785156 L 193.210938 51.785156 L 199.820312 52.480469 L 206.320312 53.863281 L 212.640625 55.917969 L 218.714844 58.621094 L 224.46875 61.945312 L 229.847656 65.851562 L 234.785156 70.300781 L 239.234375 75.238281 L 243.140625 80.617188 L 246.464844 86.375 L 249.167969 92.445312 L 251.222656 98.769531 L 252.605469 105.269531 L 253.296875 111.882812 L 253.296875 118.527344 L 252.605469 125.140625 L 251.222656 131.640625 L 249.167969 137.964844 L 246.464844 144.035156 L 243.140625 149.792969 L 239.234375 155.171875 Z M 234.785156 160.109375 " fill-opacity="1" fill-rule="nonzero"/><g clip-path="url(#488f4cef33)"><path fill="#b4b4b4" d="M 155.636719 210.070312 L 205.460938 230.558594 L 156.992188 348.449219 L 140.433594 319.617188 L 107.167969 327.960938 Z M 155.636719 210.070312 " fill-opacity="1" fill-rule="nonzero"/></g><path fill="#b4b4b4" d="M 223.324219 208.296875 L 223.324219 252.320312 L 155.65625 252.320312 L 155.65625 208.296875 Z M 223.324219 208.296875 " fill-opacity="1" fill-rule="nonzero"/><g clip-path="url(#0a0fc93372)"><path fill="#b4b4b4" d="M 224.007812 210.070312 L 174.179688 230.558594 L 222.648438 348.449219 L 239.210938 319.617188 L 272.476562 327.960938 Z M 224.007812 210.070312 " fill-opacity="1" fill-rule="nonzero"/></g><g fill="#ffffff" fill-opacity="1"><g transform="translate(146.513666, 108.90389)"><g><path d="M 8.375 -19.3125 C 9.394531 -19.3125 10.394531 -19.160156 11.375 -18.859375 C 12.363281 -18.566406 13.09375 -18.273438 13.5625 -17.984375 L 14.265625 -17.53125 L 12.515625 -14.078125 C 12.378906 -14.171875 12.1875 -14.289062 11.9375 -14.4375 C 11.6875 -14.582031 11.222656 -14.773438 10.546875 -15.015625 C 9.878906 -15.265625 9.253906 -15.390625 8.671875 -15.390625 C 7.953125 -15.390625 7.394531 -15.234375 7 -14.921875 C 6.613281 -14.617188 6.421875 -14.207031 6.421875 -13.6875 C 6.421875 -13.425781 6.507812 -13.179688 6.6875 -12.953125 C 6.875 -12.734375 7.1875 -12.5 7.625 -12.25 C 8.070312 -12 8.460938 -11.796875 8.796875 -11.640625 C 9.140625 -11.484375 9.664062 -11.253906 10.375 -10.953125 C 11.601562 -10.429688 12.648438 -9.71875 13.515625 -8.8125 C 14.378906 -7.914062 14.8125 -6.898438 14.8125 -5.765625 C 14.8125 -4.679688 14.613281 -3.734375 14.21875 -2.921875 C 13.832031 -2.109375 13.296875 -1.472656 12.609375 -1.015625 C 11.929688 -0.554688 11.175781 -0.21875 10.34375 0 C 9.519531 0.226562 8.625 0.34375 7.65625 0.34375 C 6.832031 0.34375 6.019531 0.257812 5.21875 0.09375 C 4.425781 -0.0703125 3.757812 -0.28125 3.21875 -0.53125 C 2.6875 -0.789062 2.203125 -1.039062 1.765625 -1.28125 C 1.335938 -1.53125 1.023438 -1.738281 0.828125 -1.90625 L 0.53125 -2.15625 L 2.6875 -5.796875 C 2.875 -5.640625 3.128906 -5.441406 3.453125 -5.203125 C 3.773438 -4.972656 4.34375 -4.65625 5.15625 -4.25 C 5.976562 -3.851562 6.707031 -3.65625 7.34375 -3.65625 C 9.164062 -3.65625 10.078125 -4.273438 10.078125 -5.515625 C 10.078125 -5.773438 10.007812 -6.015625 9.875 -6.234375 C 9.75 -6.460938 9.519531 -6.6875 9.1875 -6.90625 C 8.851562 -7.132812 8.5625 -7.3125 8.3125 -7.4375 C 8.0625 -7.570312 7.644531 -7.769531 7.0625 -8.03125 C 6.488281 -8.300781 6.066406 -8.503906 5.796875 -8.640625 C 4.648438 -9.210938 3.757812 -9.921875 3.125 -10.765625 C 2.5 -11.617188 2.1875 -12.539062 2.1875 -13.53125 C 2.1875 -15.226562 2.8125 -16.613281 4.0625 -17.6875 C 5.320312 -18.769531 6.757812 -19.3125 8.375 -19.3125 Z M 8.375 -19.3125 "/></g></g></g><g fill="#ffffff" fill-opacity="1"><g transform="translate(161.964459, 108.90389)"><g><path d="M 13.3125 -5.34375 L 4.765625 -5.34375 C 4.765625 -4.507812 5.03125 -3.890625 5.5625 -3.484375 C 6.101562 -3.085938 6.6875 -2.890625 7.3125 -2.890625 C 7.96875 -2.890625 8.488281 -2.976562 8.875 -3.15625 C 9.257812 -3.332031 9.695312 -3.679688 10.1875 -4.203125 L 13.140625 -2.734375 C 11.910156 -0.679688 9.867188 0.34375 7.015625 0.34375 C 5.234375 0.34375 3.707031 -0.265625 2.4375 -1.484375 C 1.164062 -2.703125 0.53125 -4.171875 0.53125 -5.890625 C 0.53125 -7.609375 1.164062 -9.078125 2.4375 -10.296875 C 3.707031 -11.523438 5.234375 -12.140625 7.015625 -12.140625 C 8.890625 -12.140625 10.410156 -11.597656 11.578125 -10.515625 C 12.753906 -9.441406 13.34375 -7.898438 13.34375 -5.890625 C 13.34375 -5.609375 13.332031 -5.425781 13.3125 -5.34375 Z M 4.875 -7.59375 L 9.359375 -7.59375 C 9.265625 -8.207031 9.019531 -8.675781 8.625 -9 C 8.238281 -9.332031 7.738281 -9.5 7.125 -9.5 C 6.457031 -9.5 5.921875 -9.320312 5.515625 -8.96875 C 5.117188 -8.613281 4.90625 -8.15625 4.875 -7.59375 Z M 4.875 -7.59375 "/></g></g></g><g fill="#ffffff" fill-opacity="1"><g transform="translate(175.828792, 108.90389)"><g><path d="M 15.046875 0 L 10.125 0 L 7.515625 -3.328125 L 4.921875 0 L 0 0 L 5.03125 -6.15625 L 0.71875 -11.796875 L 5.46875 -11.796875 L 7.515625 -9.0625 L 9.5625 -11.796875 L 14.328125 -11.796875 L 10 -6.15625 Z M 15.046875 0 "/></g></g></g><g fill="#ffffff" fill-opacity="1"><g transform="translate(190.865721, 108.90389)"><g><path d="M 5.21875 -11.796875 L 5.21875 -6.1875 C 5.21875 -5.019531 5.394531 -4.191406 5.75 -3.703125 C 6.101562 -3.210938 6.703125 -2.96875 7.546875 -2.96875 C 8.390625 -2.96875 8.984375 -3.210938 9.328125 -3.703125 C 9.679688 -4.191406 9.859375 -5.019531 9.859375 -6.1875 L 9.859375 -11.796875 L 13.9375 -11.796875 L 13.9375 -5.203125 C 13.9375 -3.234375 13.425781 -1.816406 12.40625 -0.953125 C 11.382812 -0.0859375 9.757812 0.34375 7.53125 0.34375 C 5.3125 0.34375 3.691406 -0.0859375 2.671875 -0.953125 C 1.660156 -1.816406 1.15625 -3.234375 1.15625 -5.203125 L 1.15625 -11.796875 Z M 5.21875 -11.796875 "/></g></g></g><g fill="#ffffff" fill-opacity="1"><g transform="translate(205.948644, 108.90389)"><g><path d="M 2.1875 -1.453125 C 1.082031 -2.660156 0.53125 -4.140625 0.53125 -5.890625 C 0.53125 -7.640625 1.082031 -9.117188 2.1875 -10.328125 C 3.289062 -11.535156 4.691406 -12.140625 6.390625 -12.140625 C 7.953125 -12.140625 9.242188 -11.648438 10.265625 -10.671875 L 10.265625 -11.796875 L 14.328125 -11.796875 L 14.328125 0 L 10.296875 0 L 10.296875 -1.328125 L 10.265625 -1.328125 C 9.242188 -0.210938 7.953125 0.34375 6.390625 0.34375 C 4.691406 0.34375 3.289062 -0.253906 2.1875 -1.453125 Z M 5.640625 -7.890625 C 5.117188 -7.367188 4.859375 -6.703125 4.859375 -5.890625 C 4.859375 -5.078125 5.109375 -4.410156 5.609375 -3.890625 C 6.117188 -3.378906 6.785156 -3.125 7.609375 -3.125 C 8.410156 -3.125 9.066406 -3.382812 9.578125 -3.90625 C 10.085938 -4.425781 10.34375 -5.085938 10.34375 -5.890625 C 10.34375 -6.703125 10.078125 -7.367188 9.546875 -7.890625 C 9.023438 -8.410156 8.378906 -8.671875 7.609375 -8.671875 C 6.828125 -8.671875 6.171875 -8.410156 5.640625 -7.890625 Z M 5.640625 -7.890625 "/></g></g></g><g fill="#ffffff" fill-opacity="1"><g transform="translate(221.652351, 108.90389)"><g><path d="M 1.375 0 L 1.375 -19.78125 L 5.453125 -19.78125 L 5.453125 0 Z M 1.375 0 "/></g></g></g><g fill="#ffffff" fill-opacity="1"><g transform="translate(148.400384, 140.403888)"><g><path d="M 5.703125 -7.609375 L 5.703125 0 L 1.375 0 L 1.375 -18.96875 L 5.703125 -18.96875 L 5.703125 -11.40625 L 11.828125 -11.40625 L 11.828125 -18.96875 L 16.140625 -18.96875 L 16.140625 0 L 11.828125 0 L 11.828125 -7.609375 Z M 5.703125 -7.609375 "/></g></g></g><g fill="#ffffff" fill-opacity="1"><g transform="translate(165.920475, 140.403888)"><g><path d="M 13.3125 -5.34375 L 4.765625 -5.34375 C 4.765625 -4.507812 5.03125 -3.890625 5.5625 -3.484375 C 6.101562 -3.085938 6.6875 -2.890625 7.3125 -2.890625 C 7.96875 -2.890625 8.488281 -2.976562 8.875 -3.15625 C 9.257812 -3.332031 9.695312 -3.679688 10.1875 -4.203125 L 13.140625 -2.734375 C 11.910156 -0.679688 9.867188 0.34375 7.015625 0.34375 C 5.234375 0.34375 3.707031 -0.265625 2.4375 -1.484375 C 1.164062 -2.703125 0.53125 -4.171875 0.53125 -5.890625 C 0.53125 -7.609375 1.164062 -9.078125 2.4375 -10.296875 C 3.707031 -11.523438 5.234375 -12.140625 7.015625 -12.140625 C 8.890625 -12.140625 10.410156 -11.597656 11.578125 -10.515625 C 12.753906 -9.441406 13.34375 -7.898438 13.34375 -5.890625 C 13.34375 -5.609375 13.332031 -5.425781 13.3125 -5.34375 Z M 4.875 -7.59375 L 9.359375 -7.59375 C 9.265625 -8.207031 9.019531 -8.675781 8.625 -9 C 8.238281 -9.332031 7.738281 -9.5 7.125 -9.5 C 6.457031 -9.5 5.921875 -9.320312 5.515625 -8.96875 C 5.117188 -8.613281 4.90625 -8.15625 4.875 -7.59375 Z M 4.875 -7.59375 "/></g></g></g><g fill="#ffffff" fill-opacity="1"><g transform="translate(179.784809, 140.403888)"><g><path d="M 2.1875 -1.453125 C 1.082031 -2.660156 0.53125 -4.140625 0.53125 -5.890625 C 0.53125 -7.640625 1.082031 -9.117188 2.1875 -10.328125 C 3.289062 -11.535156 4.691406 -12.140625 6.390625 -12.140625 C 7.953125 -12.140625 9.242188 -11.648438 10.265625 -10.671875 L 10.265625 -11.796875 L 14.328125 -11.796875 L 14.328125 0 L 10.296875 0 L 10.296875 -1.328125 L 10.265625 -1.328125 C 9.242188 -0.210938 7.953125 0.34375 6.390625 0.34375 C 4.691406 0.34375 3.289062 -0.253906 2.1875 -1.453125 Z M 5.640625 -7.890625 C 5.117188 -7.367188 4.859375 -6.703125 4.859375 -5.890625 C 4.859375 -5.078125 5.109375 -4.410156 5.609375 -3.890625 C 6.117188 -3.378906 6.785156 -3.125 7.609375 -3.125 C 8.410156 -3.125 9.066406 -3.382812 9.578125 -3.90625 C 10.085938 -4.425781 10.34375 -5.085938 10.34375 -5.890625 C 10.34375 -6.703125 10.078125 -7.367188 9.546875 -7.890625 C 9.023438 -8.410156 8.378906 -8.671875 7.609375 -8.671875 C 6.828125 -8.671875 6.171875 -8.410156 5.640625 -7.890625 Z M 5.640625 -7.890625 "/></g></g></g><g fill="#ffffff" fill-opacity="1"><g transform="translate(195.488516, 140.403888)"><g><path d="M 1.375 0 L 1.375 -19.78125 L 5.453125 -19.78125 L 5.453125 0 Z M 1.375 0 "/></g></g></g><g fill="#ffffff" fill-opacity="1"><g transform="translate(202.317217, 140.403888)"><g><path d="M 2.0625 -11.796875 L 2.0625 -16.1875 L 6.140625 -16.1875 L 6.140625 -11.796875 L 8.625 -11.796875 L 8.625 -8.6875 L 6.140625 -8.6875 L 6.140625 -4.9375 C 6.140625 -3.851562 6.445312 -3.3125 7.0625 -3.3125 C 7.21875 -3.3125 7.378906 -3.34375 7.546875 -3.40625 C 7.710938 -3.46875 7.84375 -3.53125 7.9375 -3.59375 L 8.078125 -3.6875 L 9.078125 -0.390625 C 8.210938 0.0976562 7.21875 0.34375 6.09375 0.34375 C 5.320312 0.34375 4.660156 0.210938 4.109375 -0.046875 C 3.554688 -0.316406 3.140625 -0.675781 2.859375 -1.125 C 2.578125 -1.582031 2.375 -2.0625 2.25 -2.5625 C 2.125 -3.0625 2.0625 -3.59375 2.0625 -4.15625 L 2.0625 -8.6875 L 0.375 -8.6875 L 0.375 -11.796875 Z M 2.0625 -11.796875 "/></g></g></g><g fill="#ffffff" fill-opacity="1"><g transform="translate(211.399156, 140.403888)"><g><path d="M 1.375 0 L 1.375 -19.78125 L 5.453125 -19.78125 L 5.453125 -10.5625 L 5.5 -10.5625 C 6.550781 -11.613281 7.675781 -12.140625 8.875 -12.140625 C 9.457031 -12.140625 10.035156 -12.0625 10.609375 -11.90625 C 11.191406 -11.757812 11.742188 -11.523438 12.265625 -11.203125 C 12.796875 -10.878906 13.222656 -10.421875 13.546875 -9.828125 C 13.878906 -9.242188 14.046875 -8.5625 14.046875 -7.78125 L 14.046875 0 L 9.984375 0 L 9.984375 -6.671875 C 9.984375 -7.285156 9.785156 -7.820312 9.390625 -8.28125 C 9.003906 -8.738281 8.492188 -8.96875 7.859375 -8.96875 C 7.253906 -8.96875 6.703125 -8.726562 6.203125 -8.25 C 5.703125 -7.78125 5.453125 -7.253906 5.453125 -6.671875 L 5.453125 0 Z M 1.375 0 "/></g></g></g></svg>