<svg xmlns="http://www.w3.org/2000/svg" xmlns:xlink="http://www.w3.org/1999/xlink" width="500" zoomAndPan="magnify" viewBox="0 0 375 374.999991" height="500" preserveAspectRatio="xMidYMid meet" version="1.0"><defs><g/><clipPath id="ed9fc5d302"><path d="M 98.675781 26.734375 L 276.425781 26.734375 L 276.425781 205 L 98.675781 205 Z M 98.675781 26.734375 " clip-rule="nonzero"/></clipPath><clipPath id="9864583acc"><path d="M 107 210 L 206 210 L 206 348.484375 L 107 348.484375 Z M 107 210 " clip-rule="nonzero"/></clipPath><clipPath id="226f6d5a18"><path d="M 174 210 L 273 210 L 273 348.484375 L 174 348.484375 Z M 174 210 " clip-rule="nonzero"/></clipPath></defs><rect x="-37.5" width="450" fill="#ffffff" y="-37.499999" height="449.999989" fill-opacity="1"/><rect x="-37.5" width="450" fill="#ffffff" y="-37.499999" height="449.999989" fill-opacity="1"/><g clip-path="url(#ed9fc5d302)"><path fill="#e1165a" d="M 250.503906 178.613281 L 239.660156 180.003906 L 236.042969 190.324219 L 225.148438 189.429688 L 219.464844 198.773438 L 208.992188 195.632812 L 201.492188 203.589844 L 191.902344 198.339844 L 182.910156 204.5625 L 174.621094 197.433594 L 164.53125 201.652344 L 157.90625 192.957031 L 147.160156 194.984375 L 142.488281 185.097656 L 131.554688 184.847656 L 129.039062 174.207031 L 118.398438 171.691406 L 118.148438 160.757812 L 108.265625 156.082031 L 110.292969 145.339844 L 101.597656 138.710938 L 105.8125 128.621094 L 98.6875 120.332031 L 104.90625 111.339844 L 99.660156 101.746094 L 107.617188 94.246094 L 104.476562 83.773438 L 113.816406 78.089844 L 112.921875 67.191406 L 123.242188 63.574219 L 124.632812 52.730469 L 135.476562 51.339844 L 139.09375 41.019531 L 149.988281 41.914062 L 155.671875 32.570312 L 166.144531 35.710938 L 173.644531 27.753906 L 183.234375 33.003906 L 192.226562 26.78125 L 200.515625 33.910156 L 210.605469 29.691406 L 217.230469 38.390625 L 227.976562 36.359375 L 232.648438 46.246094 L 243.582031 46.496094 L 246.097656 57.136719 L 256.738281 59.65625 L 256.988281 70.585938 L 266.871094 75.261719 L 264.84375 86.003906 L 273.539062 92.632812 L 269.324219 102.722656 L 276.449219 111.015625 L 270.230469 120.003906 L 275.476562 129.597656 L 267.523438 137.097656 L 270.660156 147.570312 L 261.320312 153.253906 L 262.214844 164.152344 L 251.894531 167.769531 Z M 250.503906 178.613281 " fill-opacity="1" fill-rule="nonzero"/></g><path fill="#ffffff" d="M 237.929688 163.253906 L 232.59375 168.0625 L 226.785156 172.28125 L 220.566406 175.871094 L 214.007812 178.792969 L 207.179688 181.011719 L 200.15625 182.503906 L 193.011719 183.257812 L 185.832031 183.257812 L 178.691406 182.503906 L 171.667969 181.011719 L 164.839844 178.792969 L 158.277344 175.871094 L 152.058594 172.28125 L 146.25 168.0625 L 140.914062 163.253906 L 136.109375 157.917969 L 131.890625 152.109375 L 128.300781 145.890625 L 125.378906 139.328125 L 123.160156 132.5 L 121.667969 125.476562 L 120.914062 118.332031 L 120.914062 111.152344 L 121.667969 104.011719 L 123.160156 96.984375 L 125.378906 90.15625 L 128.300781 83.59375 L 131.890625 77.375 L 136.109375 71.566406 L 140.914062 66.230469 L 146.25 61.425781 L 152.058594 57.203125 L 158.277344 53.613281 L 164.839844 50.691406 L 171.667969 48.472656 L 178.691406 46.980469 L 185.832031 46.230469 L 193.011719 46.230469 L 200.15625 46.980469 L 207.179688 48.472656 L 214.007812 50.691406 L 220.566406 53.613281 L 226.785156 57.203125 L 232.59375 61.425781 L 237.929688 66.230469 L 242.734375 71.566406 L 246.957031 77.375 L 250.546875 83.59375 L 253.46875 90.15625 L 255.6875 96.984375 L 257.179688 104.011719 L 257.929688 111.152344 L 257.929688 118.332031 L 257.179688 125.476562 L 255.6875 132.5 L 253.46875 139.328125 L 250.546875 145.890625 L 246.957031 152.109375 L 242.734375 157.917969 Z M 237.929688 163.253906 " fill-opacity="1" fill-rule="nonzero"/><path fill="#e1165a" d="M 234.785156 160.109375 L 229.847656 164.558594 L 224.46875 168.464844 L 218.714844 171.789062 L 212.640625 174.492188 L 206.320312 176.546875 L 199.820312 177.929688 L 193.210938 178.625 L 186.5625 178.625 L 179.953125 177.929688 L 173.449219 176.546875 L 167.128906 174.492188 L 161.058594 171.789062 L 155.300781 168.464844 L 149.925781 164.558594 L 144.984375 160.109375 L 140.539062 155.171875 L 136.628906 149.792969 L 133.308594 144.035156 L 130.605469 137.964844 L 128.550781 131.640625 L 127.167969 125.140625 L 126.472656 118.527344 L 126.472656 111.882812 L 127.167969 105.269531 L 128.550781 98.769531 L 130.605469 92.445312 L 133.308594 86.375 L 136.628906 80.617188 L 140.539062 75.238281 L 144.984375 70.300781 L 149.925781 65.851562 L 155.300781 61.945312 L 161.058594 58.621094 L 167.128906 55.917969 L 173.449219 53.863281 L 179.953125 52.480469 L 186.5625 51.785156 L 193.210938 51.785156 L 199.820312 52.480469 L 206.320312 53.863281 L 212.640625 55.917969 L 218.714844 58.621094 L 224.46875 61.945312 L 229.847656 65.851562 L 234.785156 70.300781 L 239.234375 75.238281 L 243.140625 80.617188 L 246.464844 86.375 L 249.167969 92.445312 L 251.222656 98.769531 L 252.605469 105.269531 L 253.296875 111.882812 L 253.296875 118.527344 L 252.605469 125.140625 L 251.222656 131.640625 L 249.167969 137.964844 L 246.464844 144.035156 L 243.140625 149.792969 L 239.234375 155.171875 Z M 234.785156 160.109375 " fill-opacity="1" fill-rule="nonzero"/><g clip-path="url(#9864583acc)"><path fill="#e1165a" d="M 155.636719 210.070312 L 205.460938 230.558594 L 156.992188 348.449219 L 140.433594 319.617188 L 107.167969 327.960938 Z M 155.636719 210.070312 " fill-opacity="1" fill-rule="nonzero"/></g><path fill="#e1165a" d="M 223.324219 208.296875 L 223.324219 252.320312 L 155.65625 252.320312 L 155.65625 208.296875 Z M 223.324219 208.296875 " fill-opacity="1" fill-rule="nonzero"/><g clip-path="url(#226f6d5a18)"><path fill="#e1165a" d="M 224.007812 210.070312 L 174.179688 230.558594 L 222.648438 348.449219 L 239.210938 319.617188 L 272.476562 327.960938 Z M 224.007812 210.070312 " fill-opacity="1" fill-rule="nonzero"/></g><g fill="#ffffff" fill-opacity="1"><g transform="translate(134.58691, 113.685989)"><g><path d="M 11.125 0 L 10.546875 -7.328125 L 10.46875 -7.328125 L 7.9375 -0.078125 L 6.25 -0.078125 L 3.71875 -7.328125 L 3.640625 -7.328125 L 3.0625 0 L 0.234375 0 L 1.34375 -12.375 L 4.34375 -12.375 L 7.09375 -5.234375 L 9.84375 -12.375 L 12.84375 -12.375 L 13.953125 0 Z M 11.125 0 "/></g></g></g><g fill="#ffffff" fill-opacity="1"><g transform="translate(148.776896, 113.685989)"><g><path d="M 1.421875 -0.953125 C 0.703125 -1.734375 0.34375 -2.691406 0.34375 -3.828125 C 0.34375 -4.972656 0.703125 -5.941406 1.421875 -6.734375 C 2.140625 -7.523438 3.054688 -7.921875 4.171875 -7.921875 C 5.191406 -7.921875 6.03125 -7.597656 6.6875 -6.953125 L 6.6875 -7.6875 L 9.34375 -7.6875 L 9.34375 0 L 6.71875 0 L 6.71875 -0.875 L 6.6875 -0.875 C 6.03125 -0.144531 5.191406 0.21875 4.171875 0.21875 C 3.054688 0.21875 2.140625 -0.171875 1.421875 -0.953125 Z M 3.6875 -5.140625 C 3.34375 -4.804688 3.171875 -4.375 3.171875 -3.84375 C 3.171875 -3.3125 3.332031 -2.878906 3.65625 -2.546875 C 3.988281 -2.210938 4.425781 -2.046875 4.96875 -2.046875 C 5.488281 -2.046875 5.914062 -2.210938 6.25 -2.546875 C 6.582031 -2.890625 6.75 -3.320312 6.75 -3.84375 C 6.75 -4.375 6.578125 -4.804688 6.234375 -5.140625 C 5.890625 -5.484375 5.46875 -5.65625 4.96875 -5.65625 C 4.457031 -5.65625 4.03125 -5.484375 3.6875 -5.140625 Z M 3.6875 -5.140625 "/></g></g></g><g fill="#ffffff" fill-opacity="1"><g transform="translate(159.021887, 113.685989)"><g><path d="M 4.25 -7.921875 C 4.6875 -7.921875 5.117188 -7.867188 5.546875 -7.765625 C 5.972656 -7.671875 6.296875 -7.570312 6.515625 -7.46875 L 6.828125 -7.3125 L 5.953125 -5.578125 C 5.359375 -5.898438 4.789062 -6.0625 4.25 -6.0625 C 3.945312 -6.0625 3.734375 -6.023438 3.609375 -5.953125 C 3.484375 -5.890625 3.421875 -5.769531 3.421875 -5.59375 C 3.421875 -5.550781 3.425781 -5.507812 3.4375 -5.46875 C 3.445312 -5.4375 3.46875 -5.398438 3.5 -5.359375 C 3.53125 -5.328125 3.554688 -5.296875 3.578125 -5.265625 C 3.597656 -5.242188 3.640625 -5.21875 3.703125 -5.1875 C 3.765625 -5.15625 3.8125 -5.128906 3.84375 -5.109375 C 3.882812 -5.097656 3.941406 -5.078125 4.015625 -5.046875 C 4.097656 -5.023438 4.160156 -5.003906 4.203125 -4.984375 C 4.242188 -4.972656 4.3125 -4.953125 4.40625 -4.921875 C 4.5 -4.890625 4.570312 -4.867188 4.625 -4.859375 C 4.925781 -4.765625 5.191406 -4.660156 5.421875 -4.546875 C 5.660156 -4.441406 5.90625 -4.296875 6.15625 -4.109375 C 6.414062 -3.921875 6.613281 -3.679688 6.75 -3.390625 C 6.882812 -3.097656 6.953125 -2.769531 6.953125 -2.40625 C 6.953125 -0.65625 5.738281 0.21875 3.3125 0.21875 C 2.757812 0.21875 2.234375 0.132812 1.734375 -0.03125 C 1.242188 -0.195312 0.890625 -0.367188 0.671875 -0.546875 L 0.34375 -0.8125 L 1.421875 -2.625 C 1.503906 -2.550781 1.609375 -2.46875 1.734375 -2.375 C 1.867188 -2.28125 2.101562 -2.148438 2.4375 -1.984375 C 2.78125 -1.816406 3.078125 -1.734375 3.328125 -1.734375 C 3.878906 -1.734375 4.15625 -1.921875 4.15625 -2.296875 C 4.15625 -2.460938 4.082031 -2.59375 3.9375 -2.6875 C 3.800781 -2.78125 3.566406 -2.882812 3.234375 -3 C 2.898438 -3.125 2.632812 -3.238281 2.4375 -3.34375 C 1.957031 -3.59375 1.578125 -3.875 1.296875 -4.1875 C 1.023438 -4.507812 0.890625 -4.925781 0.890625 -5.4375 C 0.890625 -6.21875 1.191406 -6.828125 1.796875 -7.265625 C 2.398438 -7.703125 3.21875 -7.921875 4.25 -7.921875 Z M 4.25 -7.921875 "/></g></g></g><g fill="#ffffff" fill-opacity="1"><g transform="translate(166.401884, 113.685989)"><g><path d="M 1.34375 -7.6875 L 1.34375 -10.5625 L 4 -10.5625 L 4 -7.6875 L 5.625 -7.6875 L 5.625 -5.671875 L 4 -5.671875 L 4 -3.21875 C 4 -2.507812 4.203125 -2.15625 4.609375 -2.15625 C 4.703125 -2.15625 4.800781 -2.175781 4.90625 -2.21875 C 5.019531 -2.257812 5.109375 -2.300781 5.171875 -2.34375 L 5.265625 -2.40625 L 5.921875 -0.25 C 5.347656 0.0625 4.695312 0.21875 3.96875 0.21875 C 3.46875 0.21875 3.035156 0.132812 2.671875 -0.03125 C 2.316406 -0.207031 2.046875 -0.441406 1.859375 -0.734375 C 1.679688 -1.035156 1.550781 -1.347656 1.46875 -1.671875 C 1.382812 -1.992188 1.34375 -2.34375 1.34375 -2.71875 L 1.34375 -5.671875 L 0.234375 -5.671875 L 0.234375 -7.6875 Z M 1.34375 -7.6875 "/></g></g></g><g fill="#ffffff" fill-opacity="1"><g transform="translate(172.326879, 113.685989)"><g><path d="M 3.40625 -7.6875 L 3.40625 -4.03125 C 3.40625 -3.269531 3.519531 -2.726562 3.75 -2.40625 C 3.976562 -2.09375 4.367188 -1.9375 4.921875 -1.9375 C 5.472656 -1.9375 5.863281 -2.09375 6.09375 -2.40625 C 6.320312 -2.726562 6.4375 -3.269531 6.4375 -4.03125 L 6.4375 -7.6875 L 9.09375 -7.6875 L 9.09375 -3.390625 C 9.09375 -2.109375 8.757812 -1.1875 8.09375 -0.625 C 7.425781 -0.0625 6.367188 0.21875 4.921875 0.21875 C 3.472656 0.21875 2.414062 -0.0625 1.75 -0.625 C 1.082031 -1.1875 0.75 -2.109375 0.75 -3.390625 L 0.75 -7.6875 Z M 3.40625 -7.6875 "/></g></g></g><g fill="#ffffff" fill-opacity="1"><g transform="translate(182.166874, 113.685989)"><g><path d="M 0.90625 0 L 0.90625 -7.6875 L 3.5625 -7.6875 L 3.5625 -6.578125 L 3.578125 -6.578125 C 3.597656 -6.617188 3.628906 -6.671875 3.671875 -6.734375 C 3.722656 -6.796875 3.820312 -6.898438 3.96875 -7.046875 C 4.125 -7.203125 4.285156 -7.335938 4.453125 -7.453125 C 4.617188 -7.578125 4.835938 -7.6875 5.109375 -7.78125 C 5.378906 -7.875 5.65625 -7.921875 5.9375 -7.921875 C 6.226562 -7.921875 6.515625 -7.878906 6.796875 -7.796875 C 7.078125 -7.722656 7.28125 -7.644531 7.40625 -7.5625 L 7.625 -7.4375 L 6.515625 -5.1875 C 6.179688 -5.46875 5.71875 -5.609375 5.125 -5.609375 C 4.8125 -5.609375 4.535156 -5.535156 4.296875 -5.390625 C 4.066406 -5.253906 3.90625 -5.085938 3.8125 -4.890625 C 3.71875 -4.691406 3.648438 -4.519531 3.609375 -4.375 C 3.578125 -4.238281 3.5625 -4.128906 3.5625 -4.046875 L 3.5625 0 Z M 0.90625 0 "/></g></g></g><g fill="#ffffff" fill-opacity="1"><g transform="translate(189.636868, 113.685989)"><g><path d="M 8.8125 -6.734375 C 9.539062 -5.941406 9.90625 -4.972656 9.90625 -3.828125 C 9.90625 -2.691406 9.539062 -1.734375 8.8125 -0.953125 C 8.09375 -0.171875 7.179688 0.21875 6.078125 0.21875 C 5.054688 0.21875 4.21875 -0.144531 3.5625 -0.875 L 3.53125 -0.875 L 3.53125 0 L 0.90625 0 L 0.90625 -12.90625 L 3.5625 -12.90625 L 3.5625 -6.953125 C 4.21875 -7.597656 5.054688 -7.921875 6.078125 -7.921875 C 7.179688 -7.921875 8.09375 -7.523438 8.8125 -6.734375 Z M 6.578125 -2.546875 C 6.910156 -2.878906 7.078125 -3.3125 7.078125 -3.84375 C 7.078125 -4.375 6.90625 -4.804688 6.5625 -5.140625 C 6.21875 -5.484375 5.789062 -5.65625 5.28125 -5.65625 C 4.78125 -5.65625 4.359375 -5.484375 4.015625 -5.140625 C 3.671875 -4.804688 3.5 -4.375 3.5 -3.84375 C 3.5 -3.320312 3.664062 -2.890625 4 -2.546875 C 4.332031 -2.210938 4.757812 -2.046875 5.28125 -2.046875 C 5.820312 -2.046875 6.253906 -2.210938 6.578125 -2.546875 Z M 6.578125 -2.546875 "/></g></g></g><g fill="#ffffff" fill-opacity="1"><g transform="translate(199.881858, 113.685989)"><g><path d="M 1.421875 -0.953125 C 0.703125 -1.734375 0.34375 -2.691406 0.34375 -3.828125 C 0.34375 -4.972656 0.703125 -5.941406 1.421875 -6.734375 C 2.140625 -7.523438 3.054688 -7.921875 4.171875 -7.921875 C 5.191406 -7.921875 6.03125 -7.597656 6.6875 -6.953125 L 6.6875 -7.6875 L 9.34375 -7.6875 L 9.34375 0 L 6.71875 0 L 6.71875 -0.875 L 6.6875 -0.875 C 6.03125 -0.144531 5.191406 0.21875 4.171875 0.21875 C 3.054688 0.21875 2.140625 -0.171875 1.421875 -0.953125 Z M 3.6875 -5.140625 C 3.34375 -4.804688 3.171875 -4.375 3.171875 -3.84375 C 3.171875 -3.3125 3.332031 -2.878906 3.65625 -2.546875 C 3.988281 -2.210938 4.425781 -2.046875 4.96875 -2.046875 C 5.488281 -2.046875 5.914062 -2.210938 6.25 -2.546875 C 6.582031 -2.890625 6.75 -3.320312 6.75 -3.84375 C 6.75 -4.375 6.578125 -4.804688 6.234375 -5.140625 C 5.890625 -5.484375 5.46875 -5.65625 4.96875 -5.65625 C 4.457031 -5.65625 4.03125 -5.484375 3.6875 -5.140625 Z M 3.6875 -5.140625 "/></g></g></g><g fill="#ffffff" fill-opacity="1"><g transform="translate(210.126849, 113.685989)"><g><path d="M 1.34375 -7.6875 L 1.34375 -10.5625 L 4 -10.5625 L 4 -7.6875 L 5.625 -7.6875 L 5.625 -5.671875 L 4 -5.671875 L 4 -3.21875 C 4 -2.507812 4.203125 -2.15625 4.609375 -2.15625 C 4.703125 -2.15625 4.800781 -2.175781 4.90625 -2.21875 C 5.019531 -2.257812 5.109375 -2.300781 5.171875 -2.34375 L 5.265625 -2.40625 L 5.921875 -0.25 C 5.347656 0.0625 4.695312 0.21875 3.96875 0.21875 C 3.46875 0.21875 3.035156 0.132812 2.671875 -0.03125 C 2.316406 -0.207031 2.046875 -0.441406 1.859375 -0.734375 C 1.679688 -1.035156 1.550781 -1.347656 1.46875 -1.671875 C 1.382812 -1.992188 1.34375 -2.34375 1.34375 -2.71875 L 1.34375 -5.671875 L 0.234375 -5.671875 L 0.234375 -7.6875 Z M 1.34375 -7.6875 "/></g></g></g><g fill="#ffffff" fill-opacity="1"><g transform="translate(216.051844, 113.685989)"><g><path d="M 1.15625 -11.984375 C 1.46875 -12.296875 1.835938 -12.453125 2.265625 -12.453125 C 2.691406 -12.453125 3.0625 -12.296875 3.375 -11.984375 C 3.6875 -11.671875 3.84375 -11.300781 3.84375 -10.875 C 3.84375 -10.445312 3.6875 -10.078125 3.375 -9.765625 C 3.0625 -9.453125 2.691406 -9.296875 2.265625 -9.296875 C 1.835938 -9.296875 1.46875 -9.453125 1.15625 -9.765625 C 0.84375 -10.078125 0.6875 -10.445312 0.6875 -10.875 C 0.6875 -11.300781 0.84375 -11.671875 1.15625 -11.984375 Z M 0.90625 -7.6875 L 0.90625 0 L 3.5625 0 L 3.5625 -7.6875 Z M 0.90625 -7.6875 "/></g></g></g><g fill="#ffffff" fill-opacity="1"><g transform="translate(220.581839, 113.685989)"><g><path d="M 1.625 -0.921875 C 0.769531 -1.679688 0.34375 -2.65625 0.34375 -3.84375 C 0.34375 -5.03125 0.785156 -6.003906 1.671875 -6.765625 C 2.566406 -7.535156 3.671875 -7.921875 4.984375 -7.921875 C 6.273438 -7.921875 7.359375 -7.535156 8.234375 -6.765625 C 9.117188 -5.992188 9.5625 -5.015625 9.5625 -3.828125 C 9.5625 -2.648438 9.128906 -1.679688 8.265625 -0.921875 C 7.398438 -0.160156 6.304688 0.21875 4.984375 0.21875 C 3.597656 0.21875 2.476562 -0.160156 1.625 -0.921875 Z M 3.6875 -5.140625 C 3.34375 -4.804688 3.171875 -4.375 3.171875 -3.84375 C 3.171875 -3.3125 3.332031 -2.878906 3.65625 -2.546875 C 3.988281 -2.210938 4.425781 -2.046875 4.96875 -2.046875 C 5.488281 -2.046875 5.914062 -2.210938 6.25 -2.546875 C 6.582031 -2.890625 6.75 -3.320312 6.75 -3.84375 C 6.75 -4.375 6.578125 -4.804688 6.234375 -5.140625 C 5.890625 -5.484375 5.46875 -5.65625 4.96875 -5.65625 C 4.457031 -5.65625 4.03125 -5.484375 3.6875 -5.140625 Z M 3.6875 -5.140625 "/></g></g></g><g fill="#ffffff" fill-opacity="1"><g transform="translate(230.496827, 113.685989)"><g><path d="M 0.90625 0 L 0.90625 -7.6875 L 3.5625 -7.6875 L 3.5625 -6.890625 L 3.578125 -6.890625 C 4.273438 -7.578125 5.015625 -7.921875 5.796875 -7.921875 C 6.171875 -7.921875 6.546875 -7.867188 6.921875 -7.765625 C 7.296875 -7.671875 7.65625 -7.515625 8 -7.296875 C 8.34375 -7.085938 8.625 -6.789062 8.84375 -6.40625 C 9.0625 -6.019531 9.171875 -5.570312 9.171875 -5.0625 L 9.171875 0 L 6.515625 0 L 6.515625 -4.34375 C 6.515625 -4.75 6.382812 -5.097656 6.125 -5.390625 C 5.875 -5.691406 5.539062 -5.84375 5.125 -5.84375 C 4.726562 -5.84375 4.367188 -5.6875 4.046875 -5.375 C 3.722656 -5.070312 3.5625 -4.726562 3.5625 -4.34375 L 3.5625 0 Z M 0.90625 0 "/></g></g></g><g fill="#ffffff" fill-opacity="1"><g transform="translate(160.555658, 134.685987)"><g><path d="M 0.4375 -3.25 C 0.4375 -3.625 0.519531 -3.976562 0.6875 -4.3125 C 0.851562 -4.65625 1.09375 -4.96875 1.40625 -5.25 C 1.71875 -5.53125 2.03125 -5.773438 2.34375 -5.984375 C 2.664062 -6.191406 3.035156 -6.40625 3.453125 -6.625 C 2.617188 -7.664062 2.203125 -8.582031 2.203125 -9.375 C 2.203125 -10.351562 2.546875 -11.132812 3.234375 -11.71875 C 3.921875 -12.300781 4.894531 -12.59375 6.15625 -12.59375 C 7.3125 -12.59375 8.210938 -12.269531 8.859375 -11.625 C 9.503906 -10.976562 9.828125 -10.226562 9.828125 -9.375 C 9.828125 -9.019531 9.738281 -8.675781 9.5625 -8.34375 C 9.394531 -8.007812 9.191406 -7.722656 8.953125 -7.484375 C 8.722656 -7.253906 8.488281 -7.046875 8.25 -6.859375 C 8.007812 -6.679688 7.804688 -6.550781 7.640625 -6.46875 L 7.375 -6.328125 L 9.03125 -4.625 C 9.382812 -4.78125 9.988281 -5.300781 10.84375 -6.1875 L 12.578125 -4.46875 C 12.023438 -3.832031 11.441406 -3.269531 10.828125 -2.78125 L 13.5 0 L 9.9375 0 L 8.71875 -1.28125 C 8.332031 -1.007812 8.050781 -0.816406 7.875 -0.703125 C 7.695312 -0.585938 7.429688 -0.4375 7.078125 -0.25 C 6.722656 -0.0703125 6.359375 0.046875 5.984375 0.109375 C 5.609375 0.179688 5.191406 0.21875 4.734375 0.21875 C 4.347656 0.21875 3.960938 0.1875 3.578125 0.125 C 3.203125 0.0625 2.820312 -0.0507812 2.4375 -0.21875 C 2.050781 -0.382812 1.710938 -0.59375 1.421875 -0.84375 C 1.128906 -1.09375 0.890625 -1.421875 0.703125 -1.828125 C 0.523438 -2.242188 0.4375 -2.71875 0.4375 -3.25 Z M 6.15625 -10.609375 C 5.789062 -10.609375 5.515625 -10.492188 5.328125 -10.265625 C 5.148438 -10.035156 5.0625 -9.738281 5.0625 -9.375 C 5.0625 -9.164062 5.132812 -8.929688 5.28125 -8.671875 C 5.4375 -8.421875 5.59375 -8.21875 5.75 -8.0625 L 5.96875 -7.859375 C 6.882812 -8.359375 7.34375 -8.863281 7.34375 -9.375 C 7.34375 -10.195312 6.945312 -10.609375 6.15625 -10.609375 Z M 6.890625 -3.15625 L 4.921875 -5.078125 C 4.890625 -5.066406 4.84375 -5.050781 4.78125 -5.03125 C 4.71875 -5.007812 4.613281 -4.945312 4.46875 -4.84375 C 4.320312 -4.75 4.191406 -4.644531 4.078125 -4.53125 C 3.972656 -4.414062 3.867188 -4.265625 3.765625 -4.078125 C 3.671875 -3.890625 3.625 -3.691406 3.625 -3.484375 C 3.625 -3.148438 3.765625 -2.890625 4.046875 -2.703125 C 4.328125 -2.523438 4.65625 -2.4375 5.03125 -2.4375 C 5.320312 -2.4375 5.625 -2.492188 5.9375 -2.609375 C 6.25 -2.734375 6.484375 -2.851562 6.640625 -2.96875 Z M 6.890625 -3.15625 "/></g></g></g><g fill="#ffffff" fill-opacity="1"><g transform="translate(173.050649, 134.685987)"><g/></g></g><g fill="#ffffff" fill-opacity="1"><g transform="translate(177.145642, 134.685987)"><g><path d="M 0.90625 -12.375 L 5.421875 -12.375 C 6.679688 -12.375 7.695312 -12.046875 8.46875 -11.390625 C 9.25 -10.742188 9.640625 -9.800781 9.640625 -8.5625 C 9.640625 -7.320312 9.242188 -6.347656 8.453125 -5.640625 C 7.671875 -4.941406 6.660156 -4.59375 5.421875 -4.59375 L 3.71875 -4.59375 L 3.71875 0 L 0.90625 0 Z M 3.71875 -6.84375 L 4.515625 -6.84375 C 5.140625 -6.84375 5.65625 -6.96875 6.0625 -7.21875 C 6.46875 -7.476562 6.671875 -7.894531 6.671875 -8.46875 C 6.671875 -9.0625 6.46875 -9.484375 6.0625 -9.734375 C 5.65625 -9.992188 5.140625 -10.125 4.515625 -10.125 L 3.71875 -10.125 Z M 3.71875 -6.84375 "/></g></g></g><g fill="#ffffff" fill-opacity="1"><g transform="translate(187.135636, 134.685987)"><g><path d="M 1.625 -0.921875 C 0.769531 -1.679688 0.34375 -2.65625 0.34375 -3.84375 C 0.34375 -5.03125 0.785156 -6.003906 1.671875 -6.765625 C 2.566406 -7.535156 3.671875 -7.921875 4.984375 -7.921875 C 6.273438 -7.921875 7.359375 -7.535156 8.234375 -6.765625 C 9.117188 -5.992188 9.5625 -5.015625 9.5625 -3.828125 C 9.5625 -2.648438 9.128906 -1.679688 8.265625 -0.921875 C 7.398438 -0.160156 6.304688 0.21875 4.984375 0.21875 C 3.597656 0.21875 2.476562 -0.160156 1.625 -0.921875 Z M 3.6875 -5.140625 C 3.34375 -4.804688 3.171875 -4.375 3.171875 -3.84375 C 3.171875 -3.3125 3.332031 -2.878906 3.65625 -2.546875 C 3.988281 -2.210938 4.425781 -2.046875 4.96875 -2.046875 C 5.488281 -2.046875 5.914062 -2.210938 6.25 -2.546875 C 6.582031 -2.890625 6.75 -3.320312 6.75 -3.84375 C 6.75 -4.375 6.578125 -4.804688 6.234375 -5.140625 C 5.890625 -5.484375 5.46875 -5.65625 4.96875 -5.65625 C 4.457031 -5.65625 4.03125 -5.484375 3.6875 -5.140625 Z M 3.6875 -5.140625 "/></g></g></g><g fill="#ffffff" fill-opacity="1"><g transform="translate(197.050624, 134.685987)"><g><path d="M 0.90625 0 L 0.90625 -7.6875 L 3.5625 -7.6875 L 3.5625 -6.578125 L 3.578125 -6.578125 C 3.597656 -6.617188 3.628906 -6.671875 3.671875 -6.734375 C 3.722656 -6.796875 3.820312 -6.898438 3.96875 -7.046875 C 4.125 -7.203125 4.285156 -7.335938 4.453125 -7.453125 C 4.617188 -7.578125 4.835938 -7.6875 5.109375 -7.78125 C 5.378906 -7.875 5.65625 -7.921875 5.9375 -7.921875 C 6.226562 -7.921875 6.515625 -7.878906 6.796875 -7.796875 C 7.078125 -7.722656 7.28125 -7.644531 7.40625 -7.5625 L 7.625 -7.4375 L 6.515625 -5.1875 C 6.179688 -5.46875 5.71875 -5.609375 5.125 -5.609375 C 4.8125 -5.609375 4.535156 -5.535156 4.296875 -5.390625 C 4.066406 -5.253906 3.90625 -5.085938 3.8125 -4.890625 C 3.71875 -4.691406 3.648438 -4.519531 3.609375 -4.375 C 3.578125 -4.238281 3.5625 -4.128906 3.5625 -4.046875 L 3.5625 0 Z M 0.90625 0 "/></g></g></g><g fill="#ffffff" fill-opacity="1"><g transform="translate(204.520618, 134.685987)"><g><path d="M 0.90625 0 L 0.90625 -7.6875 L 3.5625 -7.6875 L 3.5625 -6.890625 L 3.578125 -6.890625 C 4.273438 -7.578125 5.015625 -7.921875 5.796875 -7.921875 C 6.171875 -7.921875 6.546875 -7.867188 6.921875 -7.765625 C 7.296875 -7.671875 7.65625 -7.515625 8 -7.296875 C 8.34375 -7.085938 8.625 -6.789062 8.84375 -6.40625 C 9.0625 -6.019531 9.171875 -5.570312 9.171875 -5.0625 L 9.171875 0 L 6.515625 0 L 6.515625 -4.34375 C 6.515625 -4.75 6.382812 -5.097656 6.125 -5.390625 C 5.875 -5.691406 5.539062 -5.84375 5.125 -5.84375 C 4.726562 -5.84375 4.367188 -5.6875 4.046875 -5.375 C 3.722656 -5.070312 3.5625 -4.726562 3.5625 -4.34375 L 3.5625 0 Z M 0.90625 0 "/></g></g></g></svg>