<svg xmlns="http://www.w3.org/2000/svg" xmlns:xlink="http://www.w3.org/1999/xlink" width="500" zoomAndPan="magnify" viewBox="0 0 375 374.999991" height="500" preserveAspectRatio="xMidYMid meet" version="1.0"><defs><g/><clipPath id="927833091f"><path d="M 98.675781 26.734375 L 276.425781 26.734375 L 276.425781 205 L 98.675781 205 Z M 98.675781 26.734375 " clip-rule="nonzero"/></clipPath><clipPath id="45bf2326f5"><path d="M 107 210 L 206 210 L 206 348.484375 L 107 348.484375 Z M 107 210 " clip-rule="nonzero"/></clipPath><clipPath id="bf2b2d7aeb"><path d="M 174 210 L 273 210 L 273 348.484375 L 174 348.484375 Z M 174 210 " clip-rule="nonzero"/></clipPath></defs><rect x="-37.5" width="450" fill="#ffffff" y="-37.499999" height="449.999989" fill-opacity="1"/><rect x="-37.5" width="450" fill="#ffffff" y="-37.499999" height="449.999989" fill-opacity="1"/><g clip-path="url(#927833091f)"><path fill="#e1165a" d="M 250.503906 178.613281 L 239.660156 180.003906 L 236.042969 190.324219 L 225.148438 189.429688 L 219.464844 198.773438 L 208.992188 195.632812 L 201.492188 203.589844 L 191.902344 198.339844 L 182.910156 204.5625 L 174.621094 197.433594 L 164.53125 201.652344 L 157.90625 192.957031 L 147.160156 194.984375 L 142.488281 185.097656 L 131.554688 184.847656 L 129.039062 174.207031 L 118.398438 171.691406 L 118.148438 160.757812 L 108.265625 156.082031 L 110.292969 145.339844 L 101.597656 138.710938 L 105.8125 128.621094 L 98.6875 120.332031 L 104.90625 111.339844 L 99.660156 101.746094 L 107.617188 94.246094 L 104.476562 83.773438 L 113.816406 78.089844 L 112.921875 67.191406 L 123.242188 63.574219 L 124.632812 52.730469 L 135.476562 51.339844 L 139.09375 41.019531 L 149.988281 41.914062 L 155.671875 32.570312 L 166.144531 35.710938 L 173.644531 27.753906 L 183.234375 33.003906 L 192.226562 26.78125 L 200.515625 33.910156 L 210.605469 29.691406 L 217.230469 38.390625 L 227.976562 36.359375 L 232.648438 46.246094 L 243.582031 46.496094 L 246.097656 57.136719 L 256.738281 59.65625 L 256.988281 70.585938 L 266.871094 75.261719 L 264.84375 86.003906 L 273.539062 92.632812 L 269.324219 102.722656 L 276.449219 111.015625 L 270.230469 120.003906 L 275.476562 129.597656 L 267.523438 137.097656 L 270.660156 147.570312 L 261.320312 153.253906 L 262.214844 164.152344 L 251.894531 167.769531 Z M 250.503906 178.613281 " fill-opacity="1" fill-rule="nonzero"/></g><path fill="#ffffff" d="M 237.929688 163.253906 L 232.59375 168.0625 L 226.785156 172.28125 L 220.566406 175.871094 L 214.007812 178.792969 L 207.179688 181.011719 L 200.15625 182.503906 L 193.011719 183.257812 L 185.832031 183.257812 L 178.691406 182.503906 L 171.667969 181.011719 L 164.839844 178.792969 L 158.277344 175.871094 L 152.058594 172.28125 L 146.25 168.0625 L 140.914062 163.253906 L 136.109375 157.917969 L 131.890625 152.109375 L 128.300781 145.890625 L 125.378906 139.328125 L 123.160156 132.5 L 121.667969 125.476562 L 120.914062 118.332031 L 120.914062 111.152344 L 121.667969 104.011719 L 123.160156 96.984375 L 125.378906 90.15625 L 128.300781 83.59375 L 131.890625 77.375 L 136.109375 71.566406 L 140.914062 66.230469 L 146.25 61.425781 L 152.058594 57.203125 L 158.277344 53.613281 L 164.839844 50.691406 L 171.667969 48.472656 L 178.691406 46.980469 L 185.832031 46.230469 L 193.011719 46.230469 L 200.15625 46.980469 L 207.179688 48.472656 L 214.007812 50.691406 L 220.566406 53.613281 L 226.785156 57.203125 L 232.59375 61.425781 L 237.929688 66.230469 L 242.734375 71.566406 L 246.957031 77.375 L 250.546875 83.59375 L 253.46875 90.15625 L 255.6875 96.984375 L 257.179688 104.011719 L 257.929688 111.152344 L 257.929688 118.332031 L 257.179688 125.476562 L 255.6875 132.5 L 253.46875 139.328125 L 250.546875 145.890625 L 246.957031 152.109375 L 242.734375 157.917969 Z M 237.929688 163.253906 " fill-opacity="1" fill-rule="nonzero"/><path fill="#e1165a" d="M 234.785156 160.109375 L 229.847656 164.558594 L 224.46875 168.464844 L 218.714844 171.789062 L 212.640625 174.492188 L 206.320312 176.546875 L 199.820312 177.929688 L 193.210938 178.625 L 186.5625 178.625 L 179.953125 177.929688 L 173.449219 176.546875 L 167.128906 174.492188 L 161.058594 171.789062 L 155.300781 168.464844 L 149.925781 164.558594 L 144.984375 160.109375 L 140.539062 155.171875 L 136.628906 149.792969 L 133.308594 144.035156 L 130.605469 137.964844 L 128.550781 131.640625 L 127.167969 125.140625 L 126.472656 118.527344 L 126.472656 111.882812 L 127.167969 105.269531 L 128.550781 98.769531 L 130.605469 92.445312 L 133.308594 86.375 L 136.628906 80.617188 L 140.539062 75.238281 L 144.984375 70.300781 L 149.925781 65.851562 L 155.300781 61.945312 L 161.058594 58.621094 L 167.128906 55.917969 L 173.449219 53.863281 L 179.953125 52.480469 L 186.5625 51.785156 L 193.210938 51.785156 L 199.820312 52.480469 L 206.320312 53.863281 L 212.640625 55.917969 L 218.714844 58.621094 L 224.46875 61.945312 L 229.847656 65.851562 L 234.785156 70.300781 L 239.234375 75.238281 L 243.140625 80.617188 L 246.464844 86.375 L 249.167969 92.445312 L 251.222656 98.769531 L 252.605469 105.269531 L 253.296875 111.882812 L 253.296875 118.527344 L 252.605469 125.140625 L 251.222656 131.640625 L 249.167969 137.964844 L 246.464844 144.035156 L 243.140625 149.792969 L 239.234375 155.171875 Z M 234.785156 160.109375 " fill-opacity="1" fill-rule="nonzero"/><g clip-path="url(#45bf2326f5)"><path fill="#e1165a" d="M 155.636719 210.070312 L 205.460938 230.558594 L 156.992188 348.449219 L 140.433594 319.617188 L 107.167969 327.960938 Z M 155.636719 210.070312 " fill-opacity="1" fill-rule="nonzero"/></g><path fill="#e1165a" d="M 223.324219 208.296875 L 223.324219 252.320312 L 155.65625 252.320312 L 155.65625 208.296875 Z M 223.324219 208.296875 " fill-opacity="1" fill-rule="nonzero"/><g clip-path="url(#bf2b2d7aeb)"><path fill="#e1165a" d="M 224.007812 210.070312 L 174.179688 230.558594 L 222.648438 348.449219 L 239.210938 319.617188 L 272.476562 327.960938 Z M 224.007812 210.070312 " fill-opacity="1" fill-rule="nonzero"/></g><g fill="#ffffff" fill-opacity="1"><g transform="translate(131.645504, 117.792883)"><g><path d="M 7.484375 -2.546875 C 7.910156 -2.546875 8.328125 -2.609375 8.734375 -2.734375 C 9.140625 -2.867188 9.4375 -3 9.625 -3.125 L 9.921875 -3.3125 L 11.109375 -0.921875 C 11.078125 -0.890625 11.023438 -0.847656 10.953125 -0.796875 C 10.878906 -0.742188 10.710938 -0.648438 10.453125 -0.515625 C 10.203125 -0.378906 9.929688 -0.257812 9.640625 -0.15625 C 9.347656 -0.0625 8.96875 0.0195312 8.5 0.09375 C 8.03125 0.175781 7.546875 0.21875 7.046875 0.21875 C 5.898438 0.21875 4.8125 -0.0625 3.78125 -0.625 C 2.75 -1.1875 1.914062 -1.960938 1.28125 -2.953125 C 0.65625 -3.941406 0.34375 -5.015625 0.34375 -6.171875 C 0.34375 -7.035156 0.523438 -7.867188 0.890625 -8.671875 C 1.265625 -9.472656 1.757812 -10.15625 2.375 -10.71875 C 2.988281 -11.289062 3.707031 -11.742188 4.53125 -12.078125 C 5.351562 -12.421875 6.191406 -12.59375 7.046875 -12.59375 C 7.847656 -12.59375 8.585938 -12.5 9.265625 -12.3125 C 9.941406 -12.125 10.414062 -11.9375 10.6875 -11.75 L 11.109375 -11.453125 L 9.921875 -9.0625 C 9.847656 -9.125 9.738281 -9.195312 9.59375 -9.28125 C 9.457031 -9.363281 9.175781 -9.472656 8.75 -9.609375 C 8.332031 -9.753906 7.910156 -9.828125 7.484375 -9.828125 C 6.804688 -9.828125 6.195312 -9.71875 5.65625 -9.5 C 5.113281 -9.28125 4.6875 -8.988281 4.375 -8.625 C 4.0625 -8.257812 3.820312 -7.867188 3.65625 -7.453125 C 3.488281 -7.046875 3.40625 -6.625 3.40625 -6.1875 C 3.40625 -5.25 3.753906 -4.40625 4.453125 -3.65625 C 5.160156 -2.914062 6.171875 -2.546875 7.484375 -2.546875 Z M 7.484375 -2.546875 "/></g></g></g><g fill="#ffffff" fill-opacity="1"><g transform="translate(142.94049, 117.792883)"><g><path d="M 1.625 -0.921875 C 0.769531 -1.679688 0.34375 -2.65625 0.34375 -3.84375 C 0.34375 -5.03125 0.785156 -6.003906 1.671875 -6.765625 C 2.566406 -7.535156 3.671875 -7.921875 4.984375 -7.921875 C 6.273438 -7.921875 7.359375 -7.535156 8.234375 -6.765625 C 9.117188 -5.992188 9.5625 -5.015625 9.5625 -3.828125 C 9.5625 -2.648438 9.128906 -1.679688 8.265625 -0.921875 C 7.398438 -0.160156 6.304688 0.21875 4.984375 0.21875 C 3.597656 0.21875 2.476562 -0.160156 1.625 -0.921875 Z M 3.6875 -5.140625 C 3.34375 -4.804688 3.171875 -4.375 3.171875 -3.84375 C 3.171875 -3.3125 3.332031 -2.878906 3.65625 -2.546875 C 3.988281 -2.210938 4.425781 -2.046875 4.96875 -2.046875 C 5.488281 -2.046875 5.914062 -2.210938 6.25 -2.546875 C 6.582031 -2.890625 6.75 -3.320312 6.75 -3.84375 C 6.75 -4.375 6.578125 -4.804688 6.234375 -5.140625 C 5.890625 -5.484375 5.46875 -5.65625 4.96875 -5.65625 C 4.457031 -5.65625 4.03125 -5.484375 3.6875 -5.140625 Z M 3.6875 -5.140625 "/></g></g></g><g fill="#ffffff" fill-opacity="1"><g transform="translate(152.855479, 117.792883)"><g><path d="M 0.90625 0 L 0.90625 -7.6875 L 3.5625 -7.6875 L 3.5625 -6.890625 L 3.578125 -6.890625 C 4.273438 -7.578125 5.015625 -7.921875 5.796875 -7.921875 C 6.171875 -7.921875 6.546875 -7.867188 6.921875 -7.765625 C 7.296875 -7.671875 7.65625 -7.515625 8 -7.296875 C 8.34375 -7.085938 8.625 -6.789062 8.84375 -6.40625 C 9.0625 -6.019531 9.171875 -5.570312 9.171875 -5.0625 L 9.171875 0 L 6.515625 0 L 6.515625 -4.34375 C 6.515625 -4.75 6.382812 -5.097656 6.125 -5.390625 C 5.875 -5.691406 5.539062 -5.84375 5.125 -5.84375 C 4.726562 -5.84375 4.367188 -5.6875 4.046875 -5.375 C 3.722656 -5.070312 3.5625 -4.726562 3.5625 -4.34375 L 3.5625 0 Z M 0.90625 0 "/></g></g></g><g fill="#ffffff" fill-opacity="1"><g transform="translate(162.770468, 117.792883)"><g><path d="M 1.34375 -7.6875 L 1.34375 -10.5625 L 4 -10.5625 L 4 -7.6875 L 5.625 -7.6875 L 5.625 -5.671875 L 4 -5.671875 L 4 -3.21875 C 4 -2.507812 4.203125 -2.15625 4.609375 -2.15625 C 4.703125 -2.15625 4.800781 -2.175781 4.90625 -2.21875 C 5.019531 -2.257812 5.109375 -2.300781 5.171875 -2.34375 L 5.265625 -2.40625 L 5.921875 -0.25 C 5.347656 0.0625 4.695312 0.21875 3.96875 0.21875 C 3.46875 0.21875 3.035156 0.132812 2.671875 -0.03125 C 2.316406 -0.207031 2.046875 -0.441406 1.859375 -0.734375 C 1.679688 -1.035156 1.550781 -1.347656 1.46875 -1.671875 C 1.382812 -1.992188 1.34375 -2.34375 1.34375 -2.71875 L 1.34375 -5.671875 L 0.234375 -5.671875 L 0.234375 -7.6875 Z M 1.34375 -7.6875 "/></g></g></g><g fill="#ffffff" fill-opacity="1"><g transform="translate(168.695463, 117.792883)"><g><path d="M 0.90625 0 L 0.90625 -7.6875 L 3.5625 -7.6875 L 3.5625 -6.578125 L 3.578125 -6.578125 C 3.597656 -6.617188 3.628906 -6.671875 3.671875 -6.734375 C 3.722656 -6.796875 3.820312 -6.898438 3.96875 -7.046875 C 4.125 -7.203125 4.285156 -7.335938 4.453125 -7.453125 C 4.617188 -7.578125 4.835938 -7.6875 5.109375 -7.78125 C 5.378906 -7.875 5.65625 -7.921875 5.9375 -7.921875 C 6.226562 -7.921875 6.515625 -7.878906 6.796875 -7.796875 C 7.078125 -7.722656 7.28125 -7.644531 7.40625 -7.5625 L 7.625 -7.4375 L 6.515625 -5.1875 C 6.179688 -5.46875 5.71875 -5.609375 5.125 -5.609375 C 4.8125 -5.609375 4.535156 -5.535156 4.296875 -5.390625 C 4.066406 -5.253906 3.90625 -5.085938 3.8125 -4.890625 C 3.71875 -4.691406 3.648438 -4.519531 3.609375 -4.375 C 3.578125 -4.238281 3.5625 -4.128906 3.5625 -4.046875 L 3.5625 0 Z M 0.90625 0 "/></g></g></g><g fill="#ffffff" fill-opacity="1"><g transform="translate(176.165456, 117.792883)"><g><path d="M 1.421875 -0.953125 C 0.703125 -1.734375 0.34375 -2.691406 0.34375 -3.828125 C 0.34375 -4.972656 0.703125 -5.941406 1.421875 -6.734375 C 2.140625 -7.523438 3.054688 -7.921875 4.171875 -7.921875 C 5.191406 -7.921875 6.03125 -7.597656 6.6875 -6.953125 L 6.6875 -7.6875 L 9.34375 -7.6875 L 9.34375 0 L 6.71875 0 L 6.71875 -0.875 L 6.6875 -0.875 C 6.03125 -0.144531 5.191406 0.21875 4.171875 0.21875 C 3.054688 0.21875 2.140625 -0.171875 1.421875 -0.953125 Z M 3.6875 -5.140625 C 3.34375 -4.804688 3.171875 -4.375 3.171875 -3.84375 C 3.171875 -3.3125 3.332031 -2.878906 3.65625 -2.546875 C 3.988281 -2.210938 4.425781 -2.046875 4.96875 -2.046875 C 5.488281 -2.046875 5.914062 -2.210938 6.25 -2.546875 C 6.582031 -2.890625 6.75 -3.320312 6.75 -3.84375 C 6.75 -4.375 6.578125 -4.804688 6.234375 -5.140625 C 5.890625 -5.484375 5.46875 -5.65625 4.96875 -5.65625 C 4.457031 -5.65625 4.03125 -5.484375 3.6875 -5.140625 Z M 3.6875 -5.140625 "/></g></g></g><g fill="#ffffff" fill-opacity="1"><g transform="translate(186.410446, 117.792883)"><g><path d="M 5 -5.75 C 4.5 -5.75 4.066406 -5.5625 3.703125 -5.1875 C 3.347656 -4.820312 3.171875 -4.378906 3.171875 -3.859375 C 3.171875 -3.328125 3.347656 -2.875 3.703125 -2.5 C 4.066406 -2.132812 4.5 -1.953125 5 -1.953125 C 5.238281 -1.953125 5.460938 -1.976562 5.671875 -2.03125 C 5.890625 -2.09375 6.050781 -2.15625 6.15625 -2.21875 L 6.28125 -2.3125 L 7.1875 -0.46875 C 7.113281 -0.414062 7.015625 -0.351562 6.890625 -0.28125 C 6.765625 -0.207031 6.476562 -0.109375 6.03125 0.015625 C 5.59375 0.148438 5.117188 0.21875 4.609375 0.21875 C 3.472656 0.21875 2.476562 -0.175781 1.625 -0.96875 C 0.769531 -1.757812 0.34375 -2.710938 0.34375 -3.828125 C 0.34375 -4.941406 0.769531 -5.898438 1.625 -6.703125 C 2.476562 -7.515625 3.472656 -7.921875 4.609375 -7.921875 C 5.117188 -7.921875 5.585938 -7.859375 6.015625 -7.734375 C 6.441406 -7.617188 6.75 -7.5 6.9375 -7.375 L 7.1875 -7.203125 L 6.28125 -5.390625 C 5.957031 -5.628906 5.53125 -5.75 5 -5.75 Z M 5 -5.75 "/></g></g></g><g fill="#ffffff" fill-opacity="1"><g transform="translate(193.77544, 117.792883)"><g><path d="M 8.6875 -3.484375 L 3.109375 -3.484375 C 3.109375 -2.941406 3.28125 -2.539062 3.625 -2.28125 C 3.976562 -2.019531 4.359375 -1.890625 4.765625 -1.890625 C 5.203125 -1.890625 5.546875 -1.945312 5.796875 -2.0625 C 6.046875 -2.175781 6.328125 -2.40625 6.640625 -2.75 L 8.5625 -1.78125 C 7.757812 -0.445312 6.429688 0.21875 4.578125 0.21875 C 3.410156 0.21875 2.410156 -0.175781 1.578125 -0.96875 C 0.753906 -1.757812 0.34375 -2.710938 0.34375 -3.828125 C 0.34375 -4.953125 0.753906 -5.914062 1.578125 -6.71875 C 2.410156 -7.519531 3.410156 -7.921875 4.578125 -7.921875 C 5.796875 -7.921875 6.785156 -7.566406 7.546875 -6.859375 C 8.316406 -6.160156 8.703125 -5.15625 8.703125 -3.84375 C 8.703125 -3.65625 8.695312 -3.535156 8.6875 -3.484375 Z M 3.1875 -4.953125 L 6.109375 -4.953125 C 6.046875 -5.347656 5.882812 -5.648438 5.625 -5.859375 C 5.375 -6.078125 5.050781 -6.1875 4.65625 -6.1875 C 4.207031 -6.1875 3.851562 -6.070312 3.59375 -5.84375 C 3.332031 -5.613281 3.195312 -5.316406 3.1875 -4.953125 Z M 3.1875 -4.953125 "/></g></g></g><g fill="#ffffff" fill-opacity="1"><g transform="translate(202.820426, 117.792883)"><g><path d="M 8.8125 -6.734375 C 9.539062 -5.953125 9.90625 -4.988281 9.90625 -3.84375 C 9.90625 -2.707031 9.539062 -1.742188 8.8125 -0.953125 C 8.09375 -0.171875 7.179688 0.21875 6.078125 0.21875 C 5.054688 0.21875 4.21875 -0.0976562 3.5625 -0.734375 L 3.5625 3.90625 L 0.90625 3.90625 L 0.90625 -7.6875 L 3.53125 -7.6875 L 3.53125 -6.828125 L 3.5625 -6.828125 C 4.21875 -7.554688 5.054688 -7.921875 6.078125 -7.921875 C 7.179688 -7.921875 8.09375 -7.523438 8.8125 -6.734375 Z M 6.5625 -2.546875 C 6.90625 -2.890625 7.078125 -3.328125 7.078125 -3.859375 C 7.078125 -4.390625 6.910156 -4.820312 6.578125 -5.15625 C 6.253906 -5.488281 5.820312 -5.65625 5.28125 -5.65625 C 4.757812 -5.65625 4.332031 -5.484375 4 -5.140625 C 3.664062 -4.804688 3.5 -4.378906 3.5 -3.859375 C 3.5 -3.328125 3.671875 -2.890625 4.015625 -2.546875 C 4.359375 -2.210938 4.78125 -2.046875 5.28125 -2.046875 C 5.789062 -2.046875 6.21875 -2.210938 6.5625 -2.546875 Z M 6.5625 -2.546875 "/></g></g></g><g fill="#ffffff" fill-opacity="1"><g transform="translate(213.065417, 117.792883)"><g><path d="M 1.34375 -7.6875 L 1.34375 -10.5625 L 4 -10.5625 L 4 -7.6875 L 5.625 -7.6875 L 5.625 -5.671875 L 4 -5.671875 L 4 -3.21875 C 4 -2.507812 4.203125 -2.15625 4.609375 -2.15625 C 4.703125 -2.15625 4.800781 -2.175781 4.90625 -2.21875 C 5.019531 -2.257812 5.109375 -2.300781 5.171875 -2.34375 L 5.265625 -2.40625 L 5.921875 -0.25 C 5.347656 0.0625 4.695312 0.21875 3.96875 0.21875 C 3.46875 0.21875 3.035156 0.132812 2.671875 -0.03125 C 2.316406 -0.207031 2.046875 -0.441406 1.859375 -0.734375 C 1.679688 -1.035156 1.550781 -1.347656 1.46875 -1.671875 C 1.382812 -1.992188 1.34375 -2.34375 1.34375 -2.71875 L 1.34375 -5.671875 L 0.234375 -5.671875 L 0.234375 -7.6875 Z M 1.34375 -7.6875 "/></g></g></g><g fill="#ffffff" fill-opacity="1"><g transform="translate(218.990412, 117.792883)"><g><path d="M 1.15625 -11.984375 C 1.46875 -12.296875 1.835938 -12.453125 2.265625 -12.453125 C 2.691406 -12.453125 3.0625 -12.296875 3.375 -11.984375 C 3.6875 -11.671875 3.84375 -11.300781 3.84375 -10.875 C 3.84375 -10.445312 3.6875 -10.078125 3.375 -9.765625 C 3.0625 -9.453125 2.691406 -9.296875 2.265625 -9.296875 C 1.835938 -9.296875 1.46875 -9.453125 1.15625 -9.765625 C 0.84375 -10.078125 0.6875 -10.445312 0.6875 -10.875 C 0.6875 -11.300781 0.84375 -11.671875 1.15625 -11.984375 Z M 0.90625 -7.6875 L 0.90625 0 L 3.5625 0 L 3.5625 -7.6875 Z M 0.90625 -7.6875 "/></g></g></g><g fill="#ffffff" fill-opacity="1"><g transform="translate(223.520406, 117.792883)"><g><path d="M 1.625 -0.921875 C 0.769531 -1.679688 0.34375 -2.65625 0.34375 -3.84375 C 0.34375 -5.03125 0.785156 -6.003906 1.671875 -6.765625 C 2.566406 -7.535156 3.671875 -7.921875 4.984375 -7.921875 C 6.273438 -7.921875 7.359375 -7.535156 8.234375 -6.765625 C 9.117188 -5.992188 9.5625 -5.015625 9.5625 -3.828125 C 9.5625 -2.648438 9.128906 -1.679688 8.265625 -0.921875 C 7.398438 -0.160156 6.304688 0.21875 4.984375 0.21875 C 3.597656 0.21875 2.476562 -0.160156 1.625 -0.921875 Z M 3.6875 -5.140625 C 3.34375 -4.804688 3.171875 -4.375 3.171875 -3.84375 C 3.171875 -3.3125 3.332031 -2.878906 3.65625 -2.546875 C 3.988281 -2.210938 4.425781 -2.046875 4.96875 -2.046875 C 5.488281 -2.046875 5.914062 -2.210938 6.25 -2.546875 C 6.582031 -2.890625 6.75 -3.320312 6.75 -3.84375 C 6.75 -4.375 6.578125 -4.804688 6.234375 -5.140625 C 5.890625 -5.484375 5.46875 -5.65625 4.96875 -5.65625 C 4.457031 -5.65625 4.03125 -5.484375 3.6875 -5.140625 Z M 3.6875 -5.140625 "/></g></g></g><g fill="#ffffff" fill-opacity="1"><g transform="translate(233.435395, 117.792883)"><g><path d="M 0.90625 0 L 0.90625 -7.6875 L 3.5625 -7.6875 L 3.5625 -6.890625 L 3.578125 -6.890625 C 4.273438 -7.578125 5.015625 -7.921875 5.796875 -7.921875 C 6.171875 -7.921875 6.546875 -7.867188 6.921875 -7.765625 C 7.296875 -7.671875 7.65625 -7.515625 8 -7.296875 C 8.34375 -7.085938 8.625 -6.789062 8.84375 -6.40625 C 9.0625 -6.019531 9.171875 -5.570312 9.171875 -5.0625 L 9.171875 0 L 6.515625 0 L 6.515625 -4.34375 C 6.515625 -4.75 6.382812 -5.097656 6.125 -5.390625 C 5.875 -5.691406 5.539062 -5.84375 5.125 -5.84375 C 4.726562 -5.84375 4.367188 -5.6875 4.046875 -5.375 C 3.722656 -5.070312 3.5625 -4.726562 3.5625 -4.34375 L 3.5625 0 Z M 0.90625 0 "/></g></g></g></svg>