<svg xmlns="http://www.w3.org/2000/svg" xmlns:xlink="http://www.w3.org/1999/xlink" width="500" zoomAndPan="magnify" viewBox="0 0 375 374.999991" height="500" preserveAspectRatio="xMidYMid meet" version="1.0"><defs><g/><clipPath id="2099224660"><path d="M 98.675781 26.734375 L 276.425781 26.734375 L 276.425781 205 L 98.675781 205 Z M 98.675781 26.734375 " clip-rule="nonzero"/></clipPath><clipPath id="923b17d0d0"><path d="M 107 210 L 206 210 L 206 348.484375 L 107 348.484375 Z M 107 210 " clip-rule="nonzero"/></clipPath><clipPath id="6ab2d0955e"><path d="M 174 210 L 273 210 L 273 348.484375 L 174 348.484375 Z M 174 210 " clip-rule="nonzero"/></clipPath></defs><rect x="-37.5" width="450" fill="#ffffff" y="-37.499999" height="449.999989" fill-opacity="1"/><rect x="-37.5" width="450" fill="#ffffff" y="-37.499999" height="449.999989" fill-opacity="1"/><g clip-path="url(#2099224660)"><path fill="#e1165a" d="M 250.503906 178.613281 L 239.660156 180.003906 L 236.042969 190.324219 L 225.148438 189.429688 L 219.464844 198.773438 L 208.992188 195.632812 L 201.492188 203.589844 L 191.902344 198.339844 L 182.910156 204.5625 L 174.621094 197.433594 L 164.53125 201.652344 L 157.90625 192.957031 L 147.160156 194.984375 L 142.488281 185.097656 L 131.554688 184.847656 L 129.039062 174.207031 L 118.398438 171.691406 L 118.148438 160.757812 L 108.265625 156.082031 L 110.292969 145.339844 L 101.597656 138.710938 L 105.8125 128.621094 L 98.6875 120.332031 L 104.90625 111.339844 L 99.660156 101.746094 L 107.617188 94.246094 L 104.476562 83.773438 L 113.816406 78.089844 L 112.921875 67.191406 L 123.242188 63.574219 L 124.632812 52.730469 L 135.476562 51.339844 L 139.09375 41.019531 L 149.988281 41.914062 L 155.671875 32.570312 L 166.144531 35.710938 L 173.644531 27.753906 L 183.234375 33.003906 L 192.226562 26.78125 L 200.515625 33.910156 L 210.605469 29.691406 L 217.230469 38.390625 L 227.976562 36.359375 L 232.648438 46.246094 L 243.582031 46.496094 L 246.097656 57.136719 L 256.738281 59.65625 L 256.988281 70.585938 L 266.871094 75.261719 L 264.84375 86.003906 L 273.539062 92.632812 L 269.324219 102.722656 L 276.449219 111.015625 L 270.230469 120.003906 L 275.476562 129.597656 L 267.523438 137.097656 L 270.660156 147.570312 L 261.320312 153.253906 L 262.214844 164.152344 L 251.894531 167.769531 Z M 250.503906 178.613281 " fill-opacity="1" fill-rule="nonzero"/></g><path fill="#ffffff" d="M 237.929688 163.253906 L 232.59375 168.0625 L 226.785156 172.28125 L 220.566406 175.871094 L 214.007812 178.792969 L 207.179688 181.011719 L 200.15625 182.503906 L 193.011719 183.257812 L 185.832031 183.257812 L 178.691406 182.503906 L 171.667969 181.011719 L 164.839844 178.792969 L 158.277344 175.871094 L 152.058594 172.28125 L 146.25 168.0625 L 140.914062 163.253906 L 136.109375 157.917969 L 131.890625 152.109375 L 128.300781 145.890625 L 125.378906 139.328125 L 123.160156 132.5 L 121.667969 125.476562 L 120.914062 118.332031 L 120.914062 111.152344 L 121.667969 104.011719 L 123.160156 96.984375 L 125.378906 90.15625 L 128.300781 83.59375 L 131.890625 77.375 L 136.109375 71.566406 L 140.914062 66.230469 L 146.25 61.425781 L 152.058594 57.203125 L 158.277344 53.613281 L 164.839844 50.691406 L 171.667969 48.472656 L 178.691406 46.980469 L 185.832031 46.230469 L 193.011719 46.230469 L 200.15625 46.980469 L 207.179688 48.472656 L 214.007812 50.691406 L 220.566406 53.613281 L 226.785156 57.203125 L 232.59375 61.425781 L 237.929688 66.230469 L 242.734375 71.566406 L 246.957031 77.375 L 250.546875 83.59375 L 253.46875 90.15625 L 255.6875 96.984375 L 257.179688 104.011719 L 257.929688 111.152344 L 257.929688 118.332031 L 257.179688 125.476562 L 255.6875 132.5 L 253.46875 139.328125 L 250.546875 145.890625 L 246.957031 152.109375 L 242.734375 157.917969 Z M 237.929688 163.253906 " fill-opacity="1" fill-rule="nonzero"/><path fill="#e1165a" d="M 234.785156 160.109375 L 229.847656 164.558594 L 224.46875 168.464844 L 218.714844 171.789062 L 212.640625 174.492188 L 206.320312 176.546875 L 199.820312 177.929688 L 193.210938 178.625 L 186.5625 178.625 L 179.953125 177.929688 L 173.449219 176.546875 L 167.128906 174.492188 L 161.058594 171.789062 L 155.300781 168.464844 L 149.925781 164.558594 L 144.984375 160.109375 L 140.539062 155.171875 L 136.628906 149.792969 L 133.308594 144.035156 L 130.605469 137.964844 L 128.550781 131.640625 L 127.167969 125.140625 L 126.472656 118.527344 L 126.472656 111.882812 L 127.167969 105.269531 L 128.550781 98.769531 L 130.605469 92.445312 L 133.308594 86.375 L 136.628906 80.617188 L 140.539062 75.238281 L 144.984375 70.300781 L 149.925781 65.851562 L 155.300781 61.945312 L 161.058594 58.621094 L 167.128906 55.917969 L 173.449219 53.863281 L 179.953125 52.480469 L 186.5625 51.785156 L 193.210938 51.785156 L 199.820312 52.480469 L 206.320312 53.863281 L 212.640625 55.917969 L 218.714844 58.621094 L 224.46875 61.945312 L 229.847656 65.851562 L 234.785156 70.300781 L 239.234375 75.238281 L 243.140625 80.617188 L 246.464844 86.375 L 249.167969 92.445312 L 251.222656 98.769531 L 252.605469 105.269531 L 253.296875 111.882812 L 253.296875 118.527344 L 252.605469 125.140625 L 251.222656 131.640625 L 249.167969 137.964844 L 246.464844 144.035156 L 243.140625 149.792969 L 239.234375 155.171875 Z M 234.785156 160.109375 " fill-opacity="1" fill-rule="nonzero"/><g clip-path="url(#923b17d0d0)"><path fill="#e1165a" d="M 155.636719 210.070312 L 205.460938 230.558594 L 156.992188 348.449219 L 140.433594 319.617188 L 107.167969 327.960938 Z M 155.636719 210.070312 " fill-opacity="1" fill-rule="nonzero"/></g><path fill="#e1165a" d="M 223.324219 208.296875 L 223.324219 252.320312 L 155.65625 252.320312 L 155.65625 208.296875 Z M 223.324219 208.296875 " fill-opacity="1" fill-rule="nonzero"/><g clip-path="url(#6ab2d0955e)"><path fill="#e1165a" d="M 224.007812 210.070312 L 174.179688 230.558594 L 222.648438 348.449219 L 239.210938 319.617188 L 272.476562 327.960938 Z M 224.007812 210.070312 " fill-opacity="1" fill-rule="nonzero"/></g><g fill="#ffffff" fill-opacity="1"><g transform="translate(138.914059, 121.894622)"><g><path d="M 11.484375 -3.90625 C 12.140625 -3.90625 12.773438 -4.003906 13.390625 -4.203125 C 14.015625 -4.410156 14.472656 -4.601562 14.765625 -4.78125 L 15.203125 -5.078125 L 17.046875 -1.40625 C 16.984375 -1.351562 16.894531 -1.289062 16.78125 -1.21875 C 16.675781 -1.144531 16.425781 -1.003906 16.03125 -0.796875 C 15.644531 -0.585938 15.226562 -0.40625 14.78125 -0.25 C 14.34375 -0.09375 13.757812 0.0390625 13.03125 0.15625 C 12.3125 0.28125 11.570312 0.34375 10.8125 0.34375 C 9.050781 0.34375 7.378906 -0.0859375 5.796875 -0.953125 C 4.210938 -1.816406 2.9375 -3.007812 1.96875 -4.53125 C 1.007812 -6.050781 0.53125 -7.691406 0.53125 -9.453125 C 0.53125 -10.785156 0.8125 -12.066406 1.375 -13.296875 C 1.945312 -14.523438 2.703125 -15.570312 3.640625 -16.4375 C 4.585938 -17.3125 5.6875 -18.007812 6.9375 -18.53125 C 8.195312 -19.050781 9.488281 -19.3125 10.8125 -19.3125 C 12.039062 -19.3125 13.171875 -19.164062 14.203125 -18.875 C 15.234375 -18.59375 15.96875 -18.304688 16.40625 -18.015625 L 17.046875 -17.578125 L 15.203125 -13.890625 C 15.097656 -13.984375 14.9375 -14.09375 14.71875 -14.21875 C 14.5 -14.351562 14.066406 -14.523438 13.421875 -14.734375 C 12.785156 -14.953125 12.140625 -15.0625 11.484375 -15.0625 C 10.429688 -15.0625 9.488281 -14.890625 8.65625 -14.546875 C 7.832031 -14.210938 7.179688 -13.769531 6.703125 -13.21875 C 6.222656 -12.664062 5.851562 -12.070312 5.59375 -11.4375 C 5.34375 -10.800781 5.21875 -10.15625 5.21875 -9.5 C 5.21875 -8.0625 5.757812 -6.769531 6.84375 -5.625 C 7.925781 -4.476562 9.472656 -3.90625 11.484375 -3.90625 Z M 11.484375 -3.90625 "/></g></g></g><g fill="#ffffff" fill-opacity="1"><g transform="translate(156.22723, 121.894622)"><g><path d="M 2.5 -1.40625 C 1.1875 -2.570312 0.53125 -4.066406 0.53125 -5.890625 C 0.53125 -7.710938 1.210938 -9.207031 2.578125 -10.375 C 3.941406 -11.550781 5.628906 -12.140625 7.640625 -12.140625 C 9.617188 -12.140625 11.285156 -11.550781 12.640625 -10.375 C 13.992188 -9.195312 14.671875 -7.703125 14.671875 -5.890625 C 14.671875 -4.078125 14.003906 -2.582031 12.671875 -1.40625 C 11.347656 -0.238281 9.671875 0.34375 7.640625 0.34375 C 5.523438 0.34375 3.8125 -0.238281 2.5 -1.40625 Z M 5.640625 -7.890625 C 5.117188 -7.367188 4.859375 -6.703125 4.859375 -5.890625 C 4.859375 -5.078125 5.109375 -4.410156 5.609375 -3.890625 C 6.117188 -3.378906 6.785156 -3.125 7.609375 -3.125 C 8.410156 -3.125 9.066406 -3.382812 9.578125 -3.90625 C 10.085938 -4.425781 10.34375 -5.085938 10.34375 -5.890625 C 10.34375 -6.703125 10.078125 -7.367188 9.546875 -7.890625 C 9.023438 -8.410156 8.378906 -8.671875 7.609375 -8.671875 C 6.828125 -8.671875 6.171875 -8.410156 5.640625 -7.890625 Z M 5.640625 -7.890625 "/></g></g></g><g fill="#ffffff" fill-opacity="1"><g transform="translate(171.425109, 121.894622)"><g><path d="M 1.375 0 L 1.375 -11.796875 L 5.453125 -11.796875 L 5.453125 -10.5625 L 5.5 -10.5625 C 6.550781 -11.613281 7.675781 -12.140625 8.875 -12.140625 C 9.457031 -12.140625 10.035156 -12.0625 10.609375 -11.90625 C 11.191406 -11.757812 11.742188 -11.523438 12.265625 -11.203125 C 12.796875 -10.878906 13.222656 -10.421875 13.546875 -9.828125 C 13.878906 -9.242188 14.046875 -8.5625 14.046875 -7.78125 L 14.046875 0 L 9.984375 0 L 9.984375 -6.671875 C 9.984375 -7.285156 9.785156 -7.820312 9.390625 -8.28125 C 9.003906 -8.738281 8.492188 -8.96875 7.859375 -8.96875 C 7.253906 -8.96875 6.703125 -8.726562 6.203125 -8.25 C 5.703125 -7.78125 5.453125 -7.253906 5.453125 -6.671875 L 5.453125 0 Z M 1.375 0 "/></g></g></g><g fill="#ffffff" fill-opacity="1"><g transform="translate(186.622988, 121.894622)"><g><path d="M 6.515625 -12.140625 C 7.179688 -12.140625 7.84375 -12.0625 8.5 -11.90625 C 9.164062 -11.757812 9.660156 -11.609375 9.984375 -11.453125 L 10.46875 -11.21875 L 9.125 -8.5625 C 8.207031 -9.050781 7.335938 -9.296875 6.515625 -9.296875 C 6.046875 -9.296875 5.71875 -9.242188 5.53125 -9.140625 C 5.34375 -9.046875 5.25 -8.859375 5.25 -8.578125 C 5.25 -8.515625 5.253906 -8.453125 5.265625 -8.390625 C 5.285156 -8.328125 5.316406 -8.269531 5.359375 -8.21875 C 5.398438 -8.164062 5.441406 -8.117188 5.484375 -8.078125 C 5.523438 -8.046875 5.585938 -8.003906 5.671875 -7.953125 C 5.765625 -7.910156 5.835938 -7.875 5.890625 -7.84375 C 5.953125 -7.820312 6.039062 -7.789062 6.15625 -7.75 C 6.28125 -7.707031 6.375 -7.671875 6.4375 -7.640625 C 6.5 -7.617188 6.601562 -7.582031 6.75 -7.53125 C 6.894531 -7.488281 7.003906 -7.460938 7.078125 -7.453125 C 7.554688 -7.316406 7.972656 -7.160156 8.328125 -6.984375 C 8.679688 -6.816406 9.050781 -6.585938 9.4375 -6.296875 C 9.832031 -6.003906 10.132812 -5.632812 10.34375 -5.1875 C 10.5625 -4.75 10.671875 -4.25 10.671875 -3.6875 C 10.671875 -1 8.804688 0.34375 5.078125 0.34375 C 4.234375 0.34375 3.429688 0.210938 2.671875 -0.046875 C 1.921875 -0.304688 1.375 -0.566406 1.03125 -0.828125 L 0.53125 -1.234375 L 2.1875 -4.03125 C 2.3125 -3.914062 2.472656 -3.785156 2.671875 -3.640625 C 2.867188 -3.492188 3.226562 -3.296875 3.75 -3.046875 C 4.269531 -2.796875 4.722656 -2.671875 5.109375 -2.671875 C 5.953125 -2.671875 6.375 -2.953125 6.375 -3.515625 C 6.375 -3.773438 6.265625 -3.976562 6.046875 -4.125 C 5.835938 -4.269531 5.472656 -4.4375 4.953125 -4.625 C 4.441406 -4.8125 4.039062 -4.976562 3.75 -5.125 C 3.007812 -5.507812 2.425781 -5.941406 2 -6.421875 C 1.570312 -6.910156 1.359375 -7.550781 1.359375 -8.34375 C 1.359375 -9.539062 1.820312 -10.472656 2.75 -11.140625 C 3.675781 -11.804688 4.929688 -12.140625 6.515625 -12.140625 Z M 6.515625 -12.140625 "/></g></g></g><g fill="#ffffff" fill-opacity="1"><g transform="translate(197.935174, 121.894622)"><g><path d="M 13.3125 -5.34375 L 4.765625 -5.34375 C 4.765625 -4.507812 5.03125 -3.890625 5.5625 -3.484375 C 6.101562 -3.085938 6.6875 -2.890625 7.3125 -2.890625 C 7.96875 -2.890625 8.488281 -2.976562 8.875 -3.15625 C 9.257812 -3.332031 9.695312 -3.679688 10.1875 -4.203125 L 13.140625 -2.734375 C 11.910156 -0.679688 9.867188 0.34375 7.015625 0.34375 C 5.234375 0.34375 3.707031 -0.265625 2.4375 -1.484375 C 1.164062 -2.703125 0.53125 -4.171875 0.53125 -5.890625 C 0.53125 -7.609375 1.164062 -9.078125 2.4375 -10.296875 C 3.707031 -11.523438 5.234375 -12.140625 7.015625 -12.140625 C 8.890625 -12.140625 10.410156 -11.597656 11.578125 -10.515625 C 12.753906 -9.441406 13.34375 -7.898438 13.34375 -5.890625 C 13.34375 -5.609375 13.332031 -5.425781 13.3125 -5.34375 Z M 4.875 -7.59375 L 9.359375 -7.59375 C 9.265625 -8.207031 9.019531 -8.675781 8.625 -9 C 8.238281 -9.332031 7.738281 -9.5 7.125 -9.5 C 6.457031 -9.5 5.921875 -9.320312 5.515625 -8.96875 C 5.117188 -8.613281 4.90625 -8.15625 4.875 -7.59375 Z M 4.875 -7.59375 "/></g></g></g><g fill="#ffffff" fill-opacity="1"><g transform="translate(211.799507, 121.894622)"><g><path d="M 1.375 0 L 1.375 -11.796875 L 5.453125 -11.796875 L 5.453125 -10.5625 L 5.5 -10.5625 C 6.550781 -11.613281 7.675781 -12.140625 8.875 -12.140625 C 9.457031 -12.140625 10.035156 -12.0625 10.609375 -11.90625 C 11.191406 -11.757812 11.742188 -11.523438 12.265625 -11.203125 C 12.796875 -10.878906 13.222656 -10.421875 13.546875 -9.828125 C 13.878906 -9.242188 14.046875 -8.5625 14.046875 -7.78125 L 14.046875 0 L 9.984375 0 L 9.984375 -6.671875 C 9.984375 -7.285156 9.785156 -7.820312 9.390625 -8.28125 C 9.003906 -8.738281 8.492188 -8.96875 7.859375 -8.96875 C 7.253906 -8.96875 6.703125 -8.726562 6.203125 -8.25 C 5.703125 -7.78125 5.453125 -7.253906 5.453125 -6.671875 L 5.453125 0 Z M 1.375 0 "/></g></g></g><g fill="#ffffff" fill-opacity="1"><g transform="translate(226.997386, 121.894622)"><g><path d="M 2.0625 -11.796875 L 2.0625 -16.1875 L 6.140625 -16.1875 L 6.140625 -11.796875 L 8.625 -11.796875 L 8.625 -8.6875 L 6.140625 -8.6875 L 6.140625 -4.9375 C 6.140625 -3.851562 6.445312 -3.3125 7.0625 -3.3125 C 7.21875 -3.3125 7.378906 -3.34375 7.546875 -3.40625 C 7.710938 -3.46875 7.84375 -3.53125 7.9375 -3.59375 L 8.078125 -3.6875 L 9.078125 -0.390625 C 8.210938 0.0976562 7.21875 0.34375 6.09375 0.34375 C 5.320312 0.34375 4.660156 0.210938 4.109375 -0.046875 C 3.554688 -0.316406 3.140625 -0.675781 2.859375 -1.125 C 2.578125 -1.582031 2.375 -2.0625 2.25 -2.5625 C 2.125 -3.0625 2.0625 -3.59375 2.0625 -4.15625 L 2.0625 -8.6875 L 0.375 -8.6875 L 0.375 -11.796875 Z M 2.0625 -11.796875 "/></g></g></g></svg>