<svg xmlns="http://www.w3.org/2000/svg" xmlns:xlink="http://www.w3.org/1999/xlink" width="500" zoomAndPan="magnify" viewBox="0 0 375 374.999991" height="500" preserveAspectRatio="xMidYMid meet" version="1.0"><defs><g/><clipPath id="49acafb43d"><path d="M 98.675781 26.734375 L 276.425781 26.734375 L 276.425781 205 L 98.675781 205 Z M 98.675781 26.734375 " clip-rule="nonzero"/></clipPath><clipPath id="f0359c94b4"><path d="M 107 210 L 206 210 L 206 348.484375 L 107 348.484375 Z M 107 210 " clip-rule="nonzero"/></clipPath><clipPath id="568a8bf4ef"><path d="M 174 210 L 273 210 L 273 348.484375 L 174 348.484375 Z M 174 210 " clip-rule="nonzero"/></clipPath></defs><rect x="-37.5" width="450" fill="#ffffff" y="-37.499999" height="449.999989" fill-opacity="1"/><rect x="-37.5" width="450" fill="#ffffff" y="-37.499999" height="449.999989" fill-opacity="1"/><g clip-path="url(#49acafb43d)"><path fill="#e1165a" d="M 250.503906 178.613281 L 239.660156 180.003906 L 236.042969 190.324219 L 225.148438 189.429688 L 219.464844 198.773438 L 208.992188 195.632812 L 201.492188 203.589844 L 191.902344 198.339844 L 182.910156 204.5625 L 174.621094 197.433594 L 164.53125 201.652344 L 157.90625 192.957031 L 147.160156 194.984375 L 142.488281 185.097656 L 131.554688 184.847656 L 129.039062 174.207031 L 118.398438 171.691406 L 118.148438 160.757812 L 108.265625 156.082031 L 110.292969 145.339844 L 101.597656 138.710938 L 105.8125 128.621094 L 98.6875 120.332031 L 104.90625 111.339844 L 99.660156 101.746094 L 107.617188 94.246094 L 104.476562 83.773438 L 113.816406 78.089844 L 112.921875 67.191406 L 123.242188 63.574219 L 124.632812 52.730469 L 135.476562 51.339844 L 139.09375 41.019531 L 149.988281 41.914062 L 155.671875 32.570312 L 166.144531 35.710938 L 173.644531 27.753906 L 183.234375 33.003906 L 192.226562 26.78125 L 200.515625 33.910156 L 210.605469 29.691406 L 217.230469 38.390625 L 227.976562 36.359375 L 232.648438 46.246094 L 243.582031 46.496094 L 246.097656 57.136719 L 256.738281 59.65625 L 256.988281 70.585938 L 266.871094 75.261719 L 264.84375 86.003906 L 273.539062 92.632812 L 269.324219 102.722656 L 276.449219 111.015625 L 270.230469 120.003906 L 275.476562 129.597656 L 267.523438 137.097656 L 270.660156 147.570312 L 261.320312 153.253906 L 262.214844 164.152344 L 251.894531 167.769531 Z M 250.503906 178.613281 " fill-opacity="1" fill-rule="nonzero"/></g><path fill="#ffffff" d="M 237.929688 163.253906 L 232.59375 168.0625 L 226.785156 172.28125 L 220.566406 175.871094 L 214.007812 178.792969 L 207.179688 181.011719 L 200.15625 182.503906 L 193.011719 183.257812 L 185.832031 183.257812 L 178.691406 182.503906 L 171.667969 181.011719 L 164.839844 178.792969 L 158.277344 175.871094 L 152.058594 172.28125 L 146.25 168.0625 L 140.914062 163.253906 L 136.109375 157.917969 L 131.890625 152.109375 L 128.300781 145.890625 L 125.378906 139.328125 L 123.160156 132.5 L 121.667969 125.476562 L 120.914062 118.332031 L 120.914062 111.152344 L 121.667969 104.011719 L 123.160156 96.984375 L 125.378906 90.15625 L 128.300781 83.59375 L 131.890625 77.375 L 136.109375 71.566406 L 140.914062 66.230469 L 146.25 61.425781 L 152.058594 57.203125 L 158.277344 53.613281 L 164.839844 50.691406 L 171.667969 48.472656 L 178.691406 46.980469 L 185.832031 46.230469 L 193.011719 46.230469 L 200.15625 46.980469 L 207.179688 48.472656 L 214.007812 50.691406 L 220.566406 53.613281 L 226.785156 57.203125 L 232.59375 61.425781 L 237.929688 66.230469 L 242.734375 71.566406 L 246.957031 77.375 L 250.546875 83.59375 L 253.46875 90.15625 L 255.6875 96.984375 L 257.179688 104.011719 L 257.929688 111.152344 L 257.929688 118.332031 L 257.179688 125.476562 L 255.6875 132.5 L 253.46875 139.328125 L 250.546875 145.890625 L 246.957031 152.109375 L 242.734375 157.917969 Z M 237.929688 163.253906 " fill-opacity="1" fill-rule="nonzero"/><path fill="#e1165a" d="M 234.785156 160.109375 L 229.847656 164.558594 L 224.46875 168.464844 L 218.714844 171.789062 L 212.640625 174.492188 L 206.320312 176.546875 L 199.820312 177.929688 L 193.210938 178.625 L 186.5625 178.625 L 179.953125 177.929688 L 173.449219 176.546875 L 167.128906 174.492188 L 161.058594 171.789062 L 155.300781 168.464844 L 149.925781 164.558594 L 144.984375 160.109375 L 140.539062 155.171875 L 136.628906 149.792969 L 133.308594 144.035156 L 130.605469 137.964844 L 128.550781 131.640625 L 127.167969 125.140625 L 126.472656 118.527344 L 126.472656 111.882812 L 127.167969 105.269531 L 128.550781 98.769531 L 130.605469 92.445312 L 133.308594 86.375 L 136.628906 80.617188 L 140.539062 75.238281 L 144.984375 70.300781 L 149.925781 65.851562 L 155.300781 61.945312 L 161.058594 58.621094 L 167.128906 55.917969 L 173.449219 53.863281 L 179.953125 52.480469 L 186.5625 51.785156 L 193.210938 51.785156 L 199.820312 52.480469 L 206.320312 53.863281 L 212.640625 55.917969 L 218.714844 58.621094 L 224.46875 61.945312 L 229.847656 65.851562 L 234.785156 70.300781 L 239.234375 75.238281 L 243.140625 80.617188 L 246.464844 86.375 L 249.167969 92.445312 L 251.222656 98.769531 L 252.605469 105.269531 L 253.296875 111.882812 L 253.296875 118.527344 L 252.605469 125.140625 L 251.222656 131.640625 L 249.167969 137.964844 L 246.464844 144.035156 L 243.140625 149.792969 L 239.234375 155.171875 Z M 234.785156 160.109375 " fill-opacity="1" fill-rule="nonzero"/><g clip-path="url(#f0359c94b4)"><path fill="#e1165a" d="M 155.636719 210.070312 L 205.460938 230.558594 L 156.992188 348.449219 L 140.433594 319.617188 L 107.167969 327.960938 Z M 155.636719 210.070312 " fill-opacity="1" fill-rule="nonzero"/></g><path fill="#e1165a" d="M 223.324219 208.296875 L 223.324219 252.320312 L 155.65625 252.320312 L 155.65625 208.296875 Z M 223.324219 208.296875 " fill-opacity="1" fill-rule="nonzero"/><g clip-path="url(#568a8bf4ef)"><path fill="#e1165a" d="M 224.007812 210.070312 L 174.179688 230.558594 L 222.648438 348.449219 L 239.210938 319.617188 L 272.476562 327.960938 Z M 224.007812 210.070312 " fill-opacity="1" fill-rule="nonzero"/></g><g fill="#ffffff" fill-opacity="1"><g transform="translate(128.953121, 121.460618)"><g><path d="M 1.265625 -17.328125 L 7.578125 -17.328125 C 9.347656 -17.328125 10.773438 -16.867188 11.859375 -15.953125 C 12.953125 -15.046875 13.5 -13.722656 13.5 -11.984375 C 13.5 -10.253906 12.945312 -8.894531 11.84375 -7.90625 C 10.738281 -6.914062 9.316406 -6.421875 7.578125 -6.421875 L 5.203125 -6.421875 L 5.203125 0 L 1.265625 0 Z M 5.203125 -9.578125 L 6.328125 -9.578125 C 7.203125 -9.578125 7.921875 -9.753906 8.484375 -10.109375 C 9.054688 -10.460938 9.34375 -11.046875 9.34375 -11.859375 C 9.34375 -12.691406 9.054688 -13.285156 8.484375 -13.640625 C 7.921875 -13.992188 7.203125 -14.171875 6.328125 -14.171875 L 5.203125 -14.171875 Z M 5.203125 -9.578125 "/></g></g></g><g fill="#ffffff" fill-opacity="1"><g transform="translate(142.931323, 121.460618)"><g><path d="M 1.265625 0 L 1.265625 -10.765625 L 4.984375 -10.765625 L 4.984375 -9.21875 L 5.015625 -9.21875 C 5.046875 -9.269531 5.09375 -9.335938 5.15625 -9.421875 C 5.21875 -9.515625 5.351562 -9.664062 5.5625 -9.875 C 5.769531 -10.082031 5.992188 -10.269531 6.234375 -10.4375 C 6.472656 -10.601562 6.78125 -10.753906 7.15625 -10.890625 C 7.539062 -11.023438 7.925781 -11.09375 8.3125 -11.09375 C 8.71875 -11.09375 9.113281 -11.035156 9.5 -10.921875 C 9.894531 -10.804688 10.1875 -10.691406 10.375 -10.578125 L 10.671875 -10.421875 L 9.109375 -7.265625 C 8.648438 -7.660156 8.007812 -7.859375 7.1875 -7.859375 C 6.738281 -7.859375 6.351562 -7.757812 6.03125 -7.5625 C 5.707031 -7.363281 5.476562 -7.125 5.34375 -6.84375 C 5.207031 -6.5625 5.113281 -6.320312 5.0625 -6.125 C 5.007812 -5.9375 4.984375 -5.785156 4.984375 -5.671875 L 4.984375 0 Z M 1.265625 0 "/></g></g></g><g fill="#ffffff" fill-opacity="1"><g transform="translate(153.383486, 121.460618)"><g><path d="M 12.15625 -4.875 L 4.34375 -4.875 C 4.34375 -4.113281 4.585938 -3.550781 5.078125 -3.1875 C 5.566406 -2.820312 6.097656 -2.640625 6.671875 -2.640625 C 7.273438 -2.640625 7.75 -2.71875 8.09375 -2.875 C 8.445312 -3.039062 8.847656 -3.363281 9.296875 -3.84375 L 11.984375 -2.5 C 10.867188 -0.625 9.007812 0.3125 6.40625 0.3125 C 4.78125 0.3125 3.382812 -0.242188 2.21875 -1.359375 C 1.0625 -2.472656 0.484375 -3.8125 0.484375 -5.375 C 0.484375 -6.945312 1.0625 -8.289062 2.21875 -9.40625 C 3.382812 -10.53125 4.78125 -11.09375 6.40625 -11.09375 C 8.113281 -11.09375 9.503906 -10.597656 10.578125 -9.609375 C 11.648438 -8.617188 12.1875 -7.207031 12.1875 -5.375 C 12.1875 -5.125 12.175781 -4.957031 12.15625 -4.875 Z M 4.453125 -6.9375 L 8.546875 -6.9375 C 8.460938 -7.488281 8.238281 -7.914062 7.875 -8.21875 C 7.519531 -8.519531 7.066406 -8.671875 6.515625 -8.671875 C 5.898438 -8.671875 5.410156 -8.507812 5.046875 -8.1875 C 4.679688 -7.863281 4.484375 -7.445312 4.453125 -6.9375 Z M 4.453125 -6.9375 "/></g></g></g><g fill="#ffffff" fill-opacity="1"><g transform="translate(166.039426, 121.460618)"><g><path d="M 0.78125 2.640625 L 3.828125 1.15625 C 4.378906 2.082031 5.347656 2.546875 6.734375 2.546875 C 7.378906 2.546875 7.976562 2.335938 8.53125 1.921875 C 9.082031 1.503906 9.359375 0.867188 9.359375 0.015625 L 9.359375 -0.78125 C 8.703125 -0.0507812 7.53125 0.3125 5.84375 0.3125 C 4.28125 0.3125 2.992188 -0.234375 1.984375 -1.328125 C 0.984375 -2.429688 0.484375 -3.78125 0.484375 -5.375 C 0.484375 -6.96875 0.984375 -8.316406 1.984375 -9.421875 C 2.992188 -10.535156 4.28125 -11.09375 5.84375 -11.09375 C 7.226562 -11.09375 8.378906 -10.664062 9.296875 -9.8125 L 9.359375 -9.8125 L 9.359375 -10.765625 L 13.078125 -10.765625 L 13.078125 0.296875 C 13.078125 2.046875 12.492188 3.394531 11.328125 4.34375 C 10.171875 5.300781 8.640625 5.78125 6.734375 5.78125 C 3.660156 5.78125 1.675781 4.734375 0.78125 2.640625 Z M 5.15625 -7.203125 C 4.675781 -6.722656 4.4375 -6.113281 4.4375 -5.375 C 4.4375 -4.632812 4.664062 -4.03125 5.125 -3.5625 C 5.582031 -3.09375 6.191406 -2.859375 6.953125 -2.859375 C 7.679688 -2.859375 8.28125 -3.09375 8.75 -3.5625 C 9.21875 -4.039062 9.453125 -4.644531 9.453125 -5.375 C 9.453125 -6.113281 9.207031 -6.722656 8.71875 -7.203125 C 8.238281 -7.679688 7.648438 -7.921875 6.953125 -7.921875 C 6.234375 -7.921875 5.632812 -7.679688 5.15625 -7.203125 Z M 5.15625 -7.203125 "/></g></g></g><g fill="#ffffff" fill-opacity="1"><g transform="translate(180.37442, 121.460618)"><g><path d="M 1.265625 0 L 1.265625 -10.765625 L 4.984375 -10.765625 L 4.984375 -9.640625 L 5.015625 -9.640625 C 5.984375 -10.609375 7.015625 -11.09375 8.109375 -11.09375 C 8.640625 -11.09375 9.164062 -11.019531 9.6875 -10.875 C 10.21875 -10.738281 10.722656 -10.519531 11.203125 -10.21875 C 11.679688 -9.925781 12.070312 -9.507812 12.375 -8.96875 C 12.675781 -8.4375 12.828125 -7.8125 12.828125 -7.09375 L 12.828125 0 L 9.109375 0 L 9.109375 -6.09375 C 9.109375 -6.65625 8.929688 -7.144531 8.578125 -7.5625 C 8.222656 -7.976562 7.757812 -8.1875 7.1875 -8.1875 C 6.625 -8.1875 6.113281 -7.96875 5.65625 -7.53125 C 5.207031 -7.101562 4.984375 -6.625 4.984375 -6.09375 L 4.984375 0 Z M 1.265625 0 "/></g></g></g><g fill="#ffffff" fill-opacity="1"><g transform="translate(194.24768, 121.460618)"><g><path d="M 1.984375 -1.328125 C 0.984375 -2.429688 0.484375 -3.78125 0.484375 -5.375 C 0.484375 -6.96875 0.984375 -8.316406 1.984375 -9.421875 C 2.992188 -10.535156 4.28125 -11.09375 5.84375 -11.09375 C 7.269531 -11.09375 8.441406 -10.644531 9.359375 -9.75 L 9.359375 -10.765625 L 13.078125 -10.765625 L 13.078125 0 L 9.40625 0 L 9.40625 -1.21875 L 9.359375 -1.21875 C 8.441406 -0.195312 7.269531 0.3125 5.84375 0.3125 C 4.28125 0.3125 2.992188 -0.234375 1.984375 -1.328125 Z M 5.15625 -7.203125 C 4.675781 -6.722656 4.4375 -6.113281 4.4375 -5.375 C 4.4375 -4.632812 4.664062 -4.03125 5.125 -3.5625 C 5.582031 -3.09375 6.191406 -2.859375 6.953125 -2.859375 C 7.679688 -2.859375 8.28125 -3.09375 8.75 -3.5625 C 9.21875 -4.039062 9.453125 -4.644531 9.453125 -5.375 C 9.453125 -6.113281 9.207031 -6.722656 8.71875 -7.203125 C 8.238281 -7.679688 7.648438 -7.921875 6.953125 -7.921875 C 6.234375 -7.921875 5.632812 -7.679688 5.15625 -7.203125 Z M 5.15625 -7.203125 "/></g></g></g><g fill="#ffffff" fill-opacity="1"><g transform="translate(208.582674, 121.460618)"><g><path d="M 1.265625 0 L 1.265625 -10.765625 L 4.984375 -10.765625 L 4.984375 -9.640625 L 5.015625 -9.640625 C 5.984375 -10.609375 7.015625 -11.09375 8.109375 -11.09375 C 8.640625 -11.09375 9.164062 -11.019531 9.6875 -10.875 C 10.21875 -10.738281 10.722656 -10.519531 11.203125 -10.21875 C 11.679688 -9.925781 12.070312 -9.507812 12.375 -8.96875 C 12.675781 -8.4375 12.828125 -7.8125 12.828125 -7.09375 L 12.828125 0 L 9.109375 0 L 9.109375 -6.09375 C 9.109375 -6.65625 8.929688 -7.144531 8.578125 -7.5625 C 8.222656 -7.976562 7.757812 -8.1875 7.1875 -8.1875 C 6.625 -8.1875 6.113281 -7.96875 5.65625 -7.53125 C 5.207031 -7.101562 4.984375 -6.625 4.984375 -6.09375 L 4.984375 0 Z M 1.265625 0 "/></g></g></g><g fill="#ffffff" fill-opacity="1"><g transform="translate(222.455934, 121.460618)"><g><path d="M 7 -8.046875 C 6.289062 -8.046875 5.6875 -7.785156 5.1875 -7.265625 C 4.6875 -6.742188 4.4375 -6.117188 4.4375 -5.390625 C 4.4375 -4.648438 4.6875 -4.019531 5.1875 -3.5 C 5.6875 -2.988281 6.289062 -2.734375 7 -2.734375 C 7.332031 -2.734375 7.648438 -2.773438 7.953125 -2.859375 C 8.253906 -2.941406 8.472656 -3.023438 8.609375 -3.109375 L 8.796875 -3.234375 L 10.0625 -0.65625 C 9.957031 -0.582031 9.816406 -0.492188 9.640625 -0.390625 C 9.472656 -0.285156 9.078125 -0.144531 8.453125 0.03125 C 7.828125 0.21875 7.160156 0.3125 6.453125 0.3125 C 4.867188 0.3125 3.476562 -0.242188 2.28125 -1.359375 C 1.082031 -2.472656 0.484375 -3.804688 0.484375 -5.359375 C 0.484375 -6.921875 1.082031 -8.265625 2.28125 -9.390625 C 3.476562 -10.523438 4.867188 -11.09375 6.453125 -11.09375 C 7.160156 -11.09375 7.816406 -11.003906 8.421875 -10.828125 C 9.023438 -10.660156 9.453125 -10.492188 9.703125 -10.328125 L 10.0625 -10.078125 L 8.796875 -7.53125 C 8.335938 -7.875 7.738281 -8.046875 7 -8.046875 Z M 7 -8.046875 "/></g></g></g><g fill="#ffffff" fill-opacity="1"><g transform="translate(232.761178, 121.460618)"><g><path d="M 9.421875 -10.765625 L 13.71875 -10.765625 L 5.25 5.453125 L 0.96875 5.453125 L 4.6875 -1.6875 L -0.421875 -10.765625 L 3.859375 -10.765625 L 6.859375 -5.25 Z M 9.421875 -10.765625 "/></g></g></g></svg>