<svg xmlns="http://www.w3.org/2000/svg" xmlns:xlink="http://www.w3.org/1999/xlink" width="500" zoomAndPan="magnify" viewBox="0 0 375 374.999991" height="500" preserveAspectRatio="xMidYMid meet" version="1.0"><defs><g/><clipPath id="afa0f8c9ab"><path d="M 98.675781 26.734375 L 276.425781 26.734375 L 276.425781 205 L 98.675781 205 Z M 98.675781 26.734375 " clip-rule="nonzero"/></clipPath><clipPath id="44127f4069"><path d="M 107 210 L 206 210 L 206 348.484375 L 107 348.484375 Z M 107 210 " clip-rule="nonzero"/></clipPath><clipPath id="38d82000a9"><path d="M 174 210 L 273 210 L 273 348.484375 L 174 348.484375 Z M 174 210 " clip-rule="nonzero"/></clipPath></defs><rect x="-37.5" width="450" fill="#ffffff" y="-37.499999" height="449.999989" fill-opacity="1"/><rect x="-37.5" width="450" fill="#ffffff" y="-37.499999" height="449.999989" fill-opacity="1"/><g clip-path="url(#afa0f8c9ab)"><path fill="#b4b4b4" d="M 250.503906 178.613281 L 239.660156 180.003906 L 236.042969 190.324219 L 225.148438 189.429688 L 219.464844 198.773438 L 208.992188 195.632812 L 201.492188 203.589844 L 191.902344 198.339844 L 182.910156 204.5625 L 174.621094 197.433594 L 164.53125 201.652344 L 157.90625 192.957031 L 147.160156 194.984375 L 142.488281 185.097656 L 131.554688 184.847656 L 129.039062 174.207031 L 118.398438 171.691406 L 118.148438 160.757812 L 108.265625 156.082031 L 110.292969 145.339844 L 101.597656 138.710938 L 105.8125 128.621094 L 98.6875 120.332031 L 104.90625 111.339844 L 99.660156 101.746094 L 107.617188 94.246094 L 104.476562 83.773438 L 113.816406 78.089844 L 112.921875 67.191406 L 123.242188 63.574219 L 124.632812 52.730469 L 135.476562 51.339844 L 139.09375 41.019531 L 149.988281 41.914062 L 155.671875 32.570312 L 166.144531 35.710938 L 173.644531 27.753906 L 183.234375 33.003906 L 192.226562 26.78125 L 200.515625 33.910156 L 210.605469 29.691406 L 217.230469 38.390625 L 227.976562 36.359375 L 232.648438 46.246094 L 243.582031 46.496094 L 246.097656 57.136719 L 256.738281 59.65625 L 256.988281 70.585938 L 266.871094 75.261719 L 264.84375 86.003906 L 273.539062 92.632812 L 269.324219 102.722656 L 276.449219 111.015625 L 270.230469 120.003906 L 275.476562 129.597656 L 267.523438 137.097656 L 270.660156 147.570312 L 261.320312 153.253906 L 262.214844 164.152344 L 251.894531 167.769531 Z M 250.503906 178.613281 " fill-opacity="1" fill-rule="nonzero"/></g><path fill="#ffffff" d="M 237.929688 163.253906 L 232.59375 168.0625 L 226.785156 172.28125 L 220.566406 175.871094 L 214.007812 178.792969 L 207.179688 181.011719 L 200.15625 182.503906 L 193.011719 183.257812 L 185.832031 183.257812 L 178.691406 182.503906 L 171.667969 181.011719 L 164.839844 178.792969 L 158.277344 175.871094 L 152.058594 172.28125 L 146.25 168.0625 L 140.914062 163.253906 L 136.109375 157.917969 L 131.890625 152.109375 L 128.300781 145.890625 L 125.378906 139.328125 L 123.160156 132.5 L 121.667969 125.476562 L 120.914062 118.332031 L 120.914062 111.152344 L 121.667969 104.011719 L 123.160156 96.984375 L 125.378906 90.15625 L 128.300781 83.59375 L 131.890625 77.375 L 136.109375 71.566406 L 140.914062 66.230469 L 146.25 61.425781 L 152.058594 57.203125 L 158.277344 53.613281 L 164.839844 50.691406 L 171.667969 48.472656 L 178.691406 46.980469 L 185.832031 46.230469 L 193.011719 46.230469 L 200.15625 46.980469 L 207.179688 48.472656 L 214.007812 50.691406 L 220.566406 53.613281 L 226.785156 57.203125 L 232.59375 61.425781 L 237.929688 66.230469 L 242.734375 71.566406 L 246.957031 77.375 L 250.546875 83.59375 L 253.46875 90.15625 L 255.6875 96.984375 L 257.179688 104.011719 L 257.929688 111.152344 L 257.929688 118.332031 L 257.179688 125.476562 L 255.6875 132.5 L 253.46875 139.328125 L 250.546875 145.890625 L 246.957031 152.109375 L 242.734375 157.917969 Z M 237.929688 163.253906 " fill-opacity="1" fill-rule="nonzero"/><path fill="#b4b4b4" d="M 234.785156 160.109375 L 229.847656 164.558594 L 224.46875 168.464844 L 218.714844 171.789062 L 212.640625 174.492188 L 206.320312 176.546875 L 199.820312 177.929688 L 193.210938 178.625 L 186.5625 178.625 L 179.953125 177.929688 L 173.449219 176.546875 L 167.128906 174.492188 L 161.058594 171.789062 L 155.300781 168.464844 L 149.925781 164.558594 L 144.984375 160.109375 L 140.539062 155.171875 L 136.628906 149.792969 L 133.308594 144.035156 L 130.605469 137.964844 L 128.550781 131.640625 L 127.167969 125.140625 L 126.472656 118.527344 L 126.472656 111.882812 L 127.167969 105.269531 L 128.550781 98.769531 L 130.605469 92.445312 L 133.308594 86.375 L 136.628906 80.617188 L 140.539062 75.238281 L 144.984375 70.300781 L 149.925781 65.851562 L 155.300781 61.945312 L 161.058594 58.621094 L 167.128906 55.917969 L 173.449219 53.863281 L 179.953125 52.480469 L 186.5625 51.785156 L 193.210938 51.785156 L 199.820312 52.480469 L 206.320312 53.863281 L 212.640625 55.917969 L 218.714844 58.621094 L 224.46875 61.945312 L 229.847656 65.851562 L 234.785156 70.300781 L 239.234375 75.238281 L 243.140625 80.617188 L 246.464844 86.375 L 249.167969 92.445312 L 251.222656 98.769531 L 252.605469 105.269531 L 253.296875 111.882812 L 253.296875 118.527344 L 252.605469 125.140625 L 251.222656 131.640625 L 249.167969 137.964844 L 246.464844 144.035156 L 243.140625 149.792969 L 239.234375 155.171875 Z M 234.785156 160.109375 " fill-opacity="1" fill-rule="nonzero"/><g clip-path="url(#44127f4069)"><path fill="#b4b4b4" d="M 155.636719 210.070312 L 205.460938 230.558594 L 156.992188 348.449219 L 140.433594 319.617188 L 107.167969 327.960938 Z M 155.636719 210.070312 " fill-opacity="1" fill-rule="nonzero"/></g><path fill="#b4b4b4" d="M 223.324219 208.296875 L 223.324219 252.320312 L 155.65625 252.320312 L 155.65625 208.296875 Z M 223.324219 208.296875 " fill-opacity="1" fill-rule="nonzero"/><g clip-path="url(#38d82000a9)"><path fill="#b4b4b4" d="M 224.007812 210.070312 L 174.179688 230.558594 L 222.648438 348.449219 L 239.210938 319.617188 L 272.476562 327.960938 Z M 224.007812 210.070312 " fill-opacity="1" fill-rule="nonzero"/></g><g fill="#ffffff" fill-opacity="1"><g transform="translate(131.923825, 116.826732)"><g><path d="M 0.953125 -13.203125 L 5.6875 -13.203125 C 6.945312 -13.203125 7.976562 -12.863281 8.78125 -12.1875 C 9.582031 -11.507812 9.984375 -10.539062 9.984375 -9.28125 C 9.984375 -8.3125 9.738281 -7.5 9.25 -6.84375 C 8.769531 -6.1875 8.113281 -5.722656 7.28125 -5.453125 L 11.828125 0 L 8 0 L 3.96875 -5.21875 L 3.96875 0 L 0.953125 0 Z M 3.96875 -7.34375 L 4.3125 -7.34375 C 4.59375 -7.34375 4.828125 -7.347656 5.015625 -7.359375 C 5.210938 -7.367188 5.429688 -7.40625 5.671875 -7.46875 C 5.921875 -7.53125 6.117188 -7.617188 6.265625 -7.734375 C 6.421875 -7.859375 6.550781 -8.03125 6.65625 -8.25 C 6.757812 -8.476562 6.8125 -8.75 6.8125 -9.0625 C 6.8125 -9.382812 6.757812 -9.65625 6.65625 -9.875 C 6.550781 -10.101562 6.421875 -10.273438 6.265625 -10.390625 C 6.117188 -10.515625 5.921875 -10.609375 5.671875 -10.671875 C 5.429688 -10.734375 5.210938 -10.769531 5.015625 -10.78125 C 4.828125 -10.789062 4.59375 -10.796875 4.3125 -10.796875 L 3.96875 -10.796875 Z M 3.96875 -7.34375 "/></g></g></g><g fill="#ffffff" fill-opacity="1"><g transform="translate(143.377071, 116.826732)"><g><path d="M 9.265625 -3.71875 L 3.3125 -3.71875 C 3.3125 -3.132812 3.5 -2.703125 3.875 -2.421875 C 4.25 -2.148438 4.65625 -2.015625 5.09375 -2.015625 C 5.550781 -2.015625 5.910156 -2.078125 6.171875 -2.203125 C 6.441406 -2.328125 6.75 -2.566406 7.09375 -2.921875 L 9.140625 -1.90625 C 8.285156 -0.476562 6.863281 0.234375 4.875 0.234375 C 3.644531 0.234375 2.585938 -0.1875 1.703125 -1.03125 C 0.816406 -1.875 0.375 -2.894531 0.375 -4.09375 C 0.375 -5.289062 0.816406 -6.316406 1.703125 -7.171875 C 2.585938 -8.023438 3.644531 -8.453125 4.875 -8.453125 C 6.175781 -8.453125 7.234375 -8.070312 8.046875 -7.3125 C 8.867188 -6.5625 9.28125 -5.488281 9.28125 -4.09375 C 9.28125 -3.90625 9.273438 -3.78125 9.265625 -3.71875 Z M 3.390625 -5.28125 L 6.515625 -5.28125 C 6.453125 -5.707031 6.28125 -6.035156 6 -6.265625 C 5.726562 -6.492188 5.378906 -6.609375 4.953125 -6.609375 C 4.484375 -6.609375 4.109375 -6.484375 3.828125 -6.234375 C 3.554688 -5.992188 3.410156 -5.675781 3.390625 -5.28125 Z M 3.390625 -5.28125 "/></g></g></g><g fill="#ffffff" fill-opacity="1"><g transform="translate(153.022757, 116.826732)"><g><path d="M 0.953125 0 L 0.953125 -13.765625 L 3.796875 -13.765625 L 3.796875 0 Z M 0.953125 0 "/></g></g></g><g fill="#ffffff" fill-opacity="1"><g transform="translate(157.773612, 116.826732)"><g><path d="M 1.515625 -1.015625 C 0.753906 -1.847656 0.375 -2.875 0.375 -4.09375 C 0.375 -5.3125 0.753906 -6.34375 1.515625 -7.1875 C 2.285156 -8.03125 3.265625 -8.453125 4.453125 -8.453125 C 5.535156 -8.453125 6.429688 -8.109375 7.140625 -7.421875 L 7.140625 -8.203125 L 9.96875 -8.203125 L 9.96875 0 L 7.171875 0 L 7.171875 -0.921875 L 7.140625 -0.921875 C 6.429688 -0.148438 5.535156 0.234375 4.453125 0.234375 C 3.265625 0.234375 2.285156 -0.179688 1.515625 -1.015625 Z M 3.921875 -5.484375 C 3.554688 -5.117188 3.375 -4.65625 3.375 -4.09375 C 3.375 -3.53125 3.550781 -3.066406 3.90625 -2.703125 C 4.257812 -2.347656 4.722656 -2.171875 5.296875 -2.171875 C 5.847656 -2.171875 6.300781 -2.351562 6.65625 -2.71875 C 7.019531 -3.082031 7.203125 -3.539062 7.203125 -4.09375 C 7.203125 -4.65625 7.015625 -5.117188 6.640625 -5.484375 C 6.273438 -5.847656 5.828125 -6.03125 5.296875 -6.03125 C 4.753906 -6.03125 4.296875 -5.847656 3.921875 -5.484375 Z M 3.921875 -5.484375 "/></g></g></g><g fill="#ffffff" fill-opacity="1"><g transform="translate(168.698988, 116.826732)"><g><path d="M 1.4375 -8.203125 L 1.4375 -11.265625 L 4.265625 -11.265625 L 4.265625 -8.203125 L 6 -8.203125 L 6 -6.046875 L 4.265625 -6.046875 L 4.265625 -3.4375 C 4.265625 -2.675781 4.476562 -2.296875 4.90625 -2.296875 C 5.019531 -2.296875 5.132812 -2.316406 5.25 -2.359375 C 5.363281 -2.410156 5.453125 -2.457031 5.515625 -2.5 L 5.609375 -2.5625 L 6.3125 -0.265625 C 5.707031 0.0664062 5.015625 0.234375 4.234375 0.234375 C 3.703125 0.234375 3.242188 0.144531 2.859375 -0.03125 C 2.472656 -0.21875 2.179688 -0.46875 1.984375 -0.78125 C 1.796875 -1.101562 1.65625 -1.4375 1.5625 -1.78125 C 1.476562 -2.125 1.4375 -2.492188 1.4375 -2.890625 L 1.4375 -6.046875 L 0.25 -6.046875 L 0.25 -8.203125 Z M 1.4375 -8.203125 "/></g></g></g><g fill="#ffffff" fill-opacity="1"><g transform="translate(175.017465, 116.826732)"><g><path d="M 1.234375 -12.78125 C 1.566406 -13.113281 1.960938 -13.28125 2.421875 -13.28125 C 2.878906 -13.28125 3.269531 -13.113281 3.59375 -12.78125 C 3.925781 -12.445312 4.09375 -12.050781 4.09375 -11.59375 C 4.09375 -11.132812 3.925781 -10.738281 3.59375 -10.40625 C 3.269531 -10.082031 2.878906 -9.921875 2.421875 -9.921875 C 1.960938 -9.921875 1.566406 -10.082031 1.234375 -10.40625 C 0.898438 -10.738281 0.734375 -11.132812 0.734375 -11.59375 C 0.734375 -12.050781 0.898438 -12.445312 1.234375 -12.78125 Z M 0.953125 -8.203125 L 0.953125 0 L 3.796875 0 L 3.796875 -8.203125 Z M 0.953125 -8.203125 "/></g></g></g><g fill="#ffffff" fill-opacity="1"><g transform="translate(179.848302, 116.826732)"><g><path d="M 1.734375 -0.96875 C 0.828125 -1.78125 0.375 -2.820312 0.375 -4.09375 C 0.375 -5.363281 0.847656 -6.40625 1.796875 -7.21875 C 2.742188 -8.039062 3.914062 -8.453125 5.3125 -8.453125 C 6.6875 -8.453125 7.84375 -8.039062 8.78125 -7.21875 C 9.726562 -6.394531 10.203125 -5.351562 10.203125 -4.09375 C 10.203125 -2.832031 9.738281 -1.796875 8.8125 -0.984375 C 7.894531 -0.171875 6.726562 0.234375 5.3125 0.234375 C 3.84375 0.234375 2.648438 -0.164062 1.734375 -0.96875 Z M 3.921875 -5.484375 C 3.554688 -5.117188 3.375 -4.65625 3.375 -4.09375 C 3.375 -3.53125 3.550781 -3.066406 3.90625 -2.703125 C 4.257812 -2.347656 4.722656 -2.171875 5.296875 -2.171875 C 5.847656 -2.171875 6.300781 -2.351562 6.65625 -2.71875 C 7.019531 -3.082031 7.203125 -3.539062 7.203125 -4.09375 C 7.203125 -4.65625 7.015625 -5.117188 6.640625 -5.484375 C 6.273438 -5.847656 5.828125 -6.03125 5.296875 -6.03125 C 4.753906 -6.03125 4.296875 -5.847656 3.921875 -5.484375 Z M 3.921875 -5.484375 "/></g></g></g><g fill="#ffffff" fill-opacity="1"><g transform="translate(190.421761, 116.826732)"><g><path d="M 0.953125 0 L 0.953125 -8.203125 L 3.796875 -8.203125 L 3.796875 -7.34375 L 3.828125 -7.34375 C 4.554688 -8.082031 5.335938 -8.453125 6.171875 -8.453125 C 6.578125 -8.453125 6.976562 -8.394531 7.375 -8.28125 C 7.78125 -8.175781 8.164062 -8.007812 8.53125 -7.78125 C 8.90625 -7.5625 9.207031 -7.242188 9.4375 -6.828125 C 9.664062 -6.421875 9.78125 -5.945312 9.78125 -5.40625 L 9.78125 0 L 6.9375 0 L 6.9375 -4.640625 C 6.9375 -5.066406 6.800781 -5.4375 6.53125 -5.75 C 6.257812 -6.070312 5.90625 -6.234375 5.46875 -6.234375 C 5.039062 -6.234375 4.65625 -6.066406 4.3125 -5.734375 C 3.96875 -5.410156 3.796875 -5.046875 3.796875 -4.640625 L 3.796875 0 Z M 0.953125 0 "/></g></g></g><g fill="#ffffff" fill-opacity="1"><g transform="translate(200.99522, 116.826732)"><g><path d="M 4.53125 -8.453125 C 5 -8.453125 5.460938 -8.394531 5.921875 -8.28125 C 6.378906 -8.175781 6.71875 -8.070312 6.9375 -7.96875 L 7.28125 -7.8125 L 6.359375 -5.953125 C 5.710938 -6.296875 5.101562 -6.46875 4.53125 -6.46875 C 4.207031 -6.46875 3.976562 -6.429688 3.84375 -6.359375 C 3.707031 -6.285156 3.640625 -6.15625 3.640625 -5.96875 C 3.640625 -5.925781 3.644531 -5.882812 3.65625 -5.84375 C 3.675781 -5.800781 3.703125 -5.757812 3.734375 -5.71875 C 3.765625 -5.675781 3.789062 -5.640625 3.8125 -5.609375 C 3.84375 -5.585938 3.890625 -5.5625 3.953125 -5.53125 C 4.015625 -5.5 4.0625 -5.472656 4.09375 -5.453125 C 4.132812 -5.441406 4.195312 -5.421875 4.28125 -5.390625 C 4.375 -5.359375 4.441406 -5.332031 4.484375 -5.3125 C 4.523438 -5.300781 4.59375 -5.28125 4.6875 -5.25 C 4.789062 -5.21875 4.867188 -5.195312 4.921875 -5.1875 C 5.253906 -5.09375 5.539062 -4.984375 5.78125 -4.859375 C 6.03125 -4.742188 6.289062 -4.582031 6.5625 -4.375 C 6.832031 -4.175781 7.039062 -3.921875 7.1875 -3.609375 C 7.34375 -3.304688 7.421875 -2.957031 7.421875 -2.5625 C 7.421875 -0.695312 6.125 0.234375 3.53125 0.234375 C 2.945312 0.234375 2.390625 0.144531 1.859375 -0.03125 C 1.335938 -0.207031 0.957031 -0.390625 0.71875 -0.578125 L 0.375 -0.859375 L 1.515625 -2.796875 C 1.597656 -2.722656 1.707031 -2.632812 1.84375 -2.53125 C 1.988281 -2.4375 2.242188 -2.300781 2.609375 -2.125 C 2.972656 -1.945312 3.285156 -1.859375 3.546875 -1.859375 C 4.140625 -1.859375 4.4375 -2.054688 4.4375 -2.453125 C 4.4375 -2.628906 4.359375 -2.769531 4.203125 -2.875 C 4.054688 -2.976562 3.800781 -3.09375 3.4375 -3.21875 C 3.082031 -3.34375 2.804688 -3.457031 2.609375 -3.5625 C 2.097656 -3.832031 1.691406 -4.132812 1.390625 -4.46875 C 1.085938 -4.800781 0.9375 -5.25 0.9375 -5.8125 C 0.9375 -6.644531 1.257812 -7.289062 1.90625 -7.75 C 2.550781 -8.21875 3.425781 -8.453125 4.53125 -8.453125 Z M 4.53125 -8.453125 "/></g></g></g><g fill="#ffffff" fill-opacity="1"><g transform="translate(208.865333, 116.826732)"><g><path d="M 0.953125 0 L 0.953125 -13.765625 L 3.796875 -13.765625 L 3.796875 -7.34375 L 3.828125 -7.34375 C 4.554688 -8.082031 5.335938 -8.453125 6.171875 -8.453125 C 6.578125 -8.453125 6.976562 -8.394531 7.375 -8.28125 C 7.78125 -8.175781 8.164062 -8.007812 8.53125 -7.78125 C 8.90625 -7.5625 9.207031 -7.242188 9.4375 -6.828125 C 9.664062 -6.421875 9.78125 -5.945312 9.78125 -5.40625 L 9.78125 0 L 6.9375 0 L 6.9375 -4.640625 C 6.9375 -5.066406 6.800781 -5.4375 6.53125 -5.75 C 6.257812 -6.070312 5.90625 -6.234375 5.46875 -6.234375 C 5.039062 -6.234375 4.65625 -6.066406 4.3125 -5.734375 C 3.96875 -5.410156 3.796875 -5.046875 3.796875 -4.640625 L 3.796875 0 Z M 0.953125 0 "/></g></g></g><g fill="#ffffff" fill-opacity="1"><g transform="translate(219.438792, 116.826732)"><g><path d="M 1.234375 -12.78125 C 1.566406 -13.113281 1.960938 -13.28125 2.421875 -13.28125 C 2.878906 -13.28125 3.269531 -13.113281 3.59375 -12.78125 C 3.925781 -12.445312 4.09375 -12.050781 4.09375 -11.59375 C 4.09375 -11.132812 3.925781 -10.738281 3.59375 -10.40625 C 3.269531 -10.082031 2.878906 -9.921875 2.421875 -9.921875 C 1.960938 -9.921875 1.566406 -10.082031 1.234375 -10.40625 C 0.898438 -10.738281 0.734375 -11.132812 0.734375 -11.59375 C 0.734375 -12.050781 0.898438 -12.445312 1.234375 -12.78125 Z M 0.953125 -8.203125 L 0.953125 0 L 3.796875 0 L 3.796875 -8.203125 Z M 0.953125 -8.203125 "/></g></g></g><g fill="#ffffff" fill-opacity="1"><g transform="translate(224.269629, 116.826732)"><g><path d="M 9.40625 -7.1875 C 10.175781 -6.351562 10.5625 -5.328125 10.5625 -4.109375 C 10.5625 -2.890625 10.175781 -1.859375 9.40625 -1.015625 C 8.632812 -0.179688 7.660156 0.234375 6.484375 0.234375 C 5.390625 0.234375 4.492188 -0.101562 3.796875 -0.78125 L 3.796875 4.15625 L 0.953125 4.15625 L 0.953125 -8.203125 L 3.765625 -8.203125 L 3.765625 -7.28125 L 3.796875 -7.28125 C 4.492188 -8.0625 5.390625 -8.453125 6.484375 -8.453125 C 7.660156 -8.453125 8.632812 -8.03125 9.40625 -7.1875 Z M 7 -2.71875 C 7.363281 -3.082031 7.546875 -3.546875 7.546875 -4.109375 C 7.546875 -4.671875 7.367188 -5.128906 7.015625 -5.484375 C 6.671875 -5.847656 6.207031 -6.03125 5.625 -6.03125 C 5.070312 -6.03125 4.617188 -5.847656 4.265625 -5.484375 C 3.910156 -5.117188 3.734375 -4.660156 3.734375 -4.109375 C 3.734375 -3.546875 3.914062 -3.082031 4.28125 -2.71875 C 4.644531 -2.351562 5.09375 -2.171875 5.625 -2.171875 C 6.175781 -2.171875 6.632812 -2.351562 7 -2.71875 Z M 7 -2.71875 "/></g></g></g><g fill="#ffffff" fill-opacity="1"><g transform="translate(235.195005, 116.826732)"><g><path d="M 4.53125 -8.453125 C 5 -8.453125 5.460938 -8.394531 5.921875 -8.28125 C 6.378906 -8.175781 6.71875 -8.070312 6.9375 -7.96875 L 7.28125 -7.8125 L 6.359375 -5.953125 C 5.710938 -6.296875 5.101562 -6.46875 4.53125 -6.46875 C 4.207031 -6.46875 3.976562 -6.429688 3.84375 -6.359375 C 3.707031 -6.285156 3.640625 -6.15625 3.640625 -5.96875 C 3.640625 -5.925781 3.644531 -5.882812 3.65625 -5.84375 C 3.675781 -5.800781 3.703125 -5.757812 3.734375 -5.71875 C 3.765625 -5.675781 3.789062 -5.640625 3.8125 -5.609375 C 3.84375 -5.585938 3.890625 -5.5625 3.953125 -5.53125 C 4.015625 -5.5 4.0625 -5.472656 4.09375 -5.453125 C 4.132812 -5.441406 4.195312 -5.421875 4.28125 -5.390625 C 4.375 -5.359375 4.441406 -5.332031 4.484375 -5.3125 C 4.523438 -5.300781 4.59375 -5.28125 4.6875 -5.25 C 4.789062 -5.21875 4.867188 -5.195312 4.921875 -5.1875 C 5.253906 -5.09375 5.539062 -4.984375 5.78125 -4.859375 C 6.03125 -4.742188 6.289062 -4.582031 6.5625 -4.375 C 6.832031 -4.175781 7.039062 -3.921875 7.1875 -3.609375 C 7.34375 -3.304688 7.421875 -2.957031 7.421875 -2.5625 C 7.421875 -0.695312 6.125 0.234375 3.53125 0.234375 C 2.945312 0.234375 2.390625 0.144531 1.859375 -0.03125 C 1.335938 -0.207031 0.957031 -0.390625 0.71875 -0.578125 L 0.375 -0.859375 L 1.515625 -2.796875 C 1.597656 -2.722656 1.707031 -2.632812 1.84375 -2.53125 C 1.988281 -2.4375 2.242188 -2.300781 2.609375 -2.125 C 2.972656 -1.945312 3.285156 -1.859375 3.546875 -1.859375 C 4.140625 -1.859375 4.4375 -2.054688 4.4375 -2.453125 C 4.4375 -2.628906 4.359375 -2.769531 4.203125 -2.875 C 4.054688 -2.976562 3.800781 -3.09375 3.4375 -3.21875 C 3.082031 -3.34375 2.804688 -3.457031 2.609375 -3.5625 C 2.097656 -3.832031 1.691406 -4.132812 1.390625 -4.46875 C 1.085938 -4.800781 0.9375 -5.25 0.9375 -5.8125 C 0.9375 -6.644531 1.257812 -7.289062 1.90625 -7.75 C 2.550781 -8.21875 3.425781 -8.453125 4.53125 -8.453125 Z M 4.53125 -8.453125 "/></g></g></g></svg>