<svg xmlns="http://www.w3.org/2000/svg" xmlns:xlink="http://www.w3.org/1999/xlink" width="1640" zoomAndPan="magnify" viewBox="0 0 1230 693.000001" height="924" preserveAspectRatio="xMidYMid meet" version="1.0"><defs><clipPath id="103efef6c8"><path d="M 0.886719 0 L 1229.113281 0 L 1229.113281 692 L 0.886719 692 Z M 0.886719 0 " clip-rule="nonzero"/></clipPath><clipPath id="d9c23369be"><path d="M 499.011719 288.941406 L 612.847656 288.941406 L 612.847656 402.777344 L 499.011719 402.777344 Z M 499.011719 288.941406 " clip-rule="nonzero"/></clipPath><clipPath id="fe4106ffe8"><path d="M 751.578125 289.507812 L 865.414062 289.507812 L 865.414062 403.34375 L 751.578125 403.34375 Z M 751.578125 289.507812 " clip-rule="nonzero"/></clipPath><clipPath id="e92e756a7a"><path d="M 625.292969 289.507812 L 739.128906 289.507812 L 739.128906 403.34375 L 625.292969 403.34375 Z M 625.292969 289.507812 " clip-rule="nonzero"/></clipPath><clipPath id="ff5167e4ba"><path d="M 877.863281 289.507812 L 991.699219 289.507812 L 991.699219 403.34375 L 877.863281 403.34375 Z M 877.863281 289.507812 " clip-rule="nonzero"/></clipPath><clipPath id="a6aed35e73"><path d="M 1004.148438 289.507812 L 1117.984375 289.507812 L 1117.984375 403.34375 L 1004.148438 403.34375 Z M 1004.148438 289.507812 " clip-rule="nonzero"/></clipPath><clipPath id="184d1c7ba5"><path d="M 372.726562 288.941406 L 486.5625 288.941406 L 486.5625 402.777344 L 372.726562 402.777344 Z M 372.726562 288.941406 " clip-rule="nonzero"/></clipPath><clipPath id="1fb21f09f1"><path d="M 120.15625 288.941406 L 233.992188 288.941406 L 233.992188 402.777344 L 120.15625 402.777344 Z M 120.15625 288.941406 " clip-rule="nonzero"/></clipPath><clipPath id="75ac468b22"><path d="M 246.441406 289.507812 L 360.277344 289.507812 L 360.277344 403.34375 L 246.441406 403.34375 Z M 246.441406 289.507812 " clip-rule="nonzero"/></clipPath></defs><g clip-path="url(#103efef6c8)"><path fill="#ffffff" d="M 0.886719 0 L 1229.113281 0 L 1229.113281 699.492188 L 0.886719 699.492188 Z M 0.886719 0 " fill-opacity="1" fill-rule="nonzero"/><path fill="#ffffff" d="M 0.886719 0 L 1229.113281 0 L 1229.113281 692 L 0.886719 692 Z M 0.886719 0 " fill-opacity="1" fill-rule="nonzero"/><path fill="#ffffff" d="M 0.886719 0 L 1229.113281 0 L 1229.113281 692 L 0.886719 692 Z M 0.886719 0 " fill-opacity="1" fill-rule="nonzero"/></g><g clip-path="url(#d9c23369be)"><path fill="#e1165a" d="M 555.929688 402.777344 C 524.554688 402.777344 499.011719 377.234375 499.011719 345.859375 C 499.011719 314.484375 524.554688 288.941406 555.929688 288.941406 C 587.304688 288.941406 612.847656 314.484375 612.847656 345.859375 C 612.847656 377.234375 587.304688 402.777344 555.929688 402.777344 Z M 555.929688 289.78125 C 525 289.78125 499.851562 314.933594 499.851562 345.859375 C 499.851562 376.785156 525 401.9375 555.929688 401.9375 C 586.855469 401.9375 612.003906 376.785156 612.003906 345.859375 C 612.003906 314.933594 586.855469 289.78125 555.929688 289.78125 Z M 555.929688 289.78125 " fill-opacity="1" fill-rule="nonzero"/></g><g clip-path="url(#fe4106ffe8)"><path fill="#e1165a" d="M 808.496094 403.34375 C 777.121094 403.34375 751.578125 377.800781 751.578125 346.425781 C 751.578125 315.050781 777.121094 289.507812 808.496094 289.507812 C 839.871094 289.507812 865.414062 315.050781 865.414062 346.425781 C 865.414062 377.800781 839.871094 403.34375 808.496094 403.34375 Z M 808.496094 290.347656 C 777.570312 290.347656 752.421875 315.496094 752.421875 346.425781 C 752.421875 377.351562 777.570312 402.5 808.496094 402.5 C 839.421875 402.5 864.574219 377.351562 864.574219 346.425781 C 864.574219 315.496094 839.421875 290.347656 808.496094 290.347656 Z M 808.496094 290.347656 " fill-opacity="1" fill-rule="nonzero"/></g><g clip-path="url(#e92e756a7a)"><path fill="#e1165a" d="M 682.210938 403.34375 C 650.835938 403.34375 625.292969 377.800781 625.292969 346.425781 C 625.292969 315.050781 650.835938 289.507812 682.210938 289.507812 C 713.585938 289.507812 739.128906 315.050781 739.128906 346.425781 C 739.128906 377.800781 713.585938 403.34375 682.210938 403.34375 Z M 682.210938 290.347656 C 651.285156 290.347656 626.136719 315.496094 626.136719 346.425781 C 626.136719 377.351562 651.285156 402.5 682.210938 402.5 C 713.140625 402.5 738.289062 377.351562 738.289062 346.425781 C 738.289062 315.496094 713.140625 290.347656 682.210938 290.347656 Z M 682.210938 290.347656 " fill-opacity="1" fill-rule="nonzero"/></g><g clip-path="url(#ff5167e4ba)"><path fill="#e1165a" d="M 934.78125 403.34375 C 903.40625 403.34375 877.863281 377.800781 877.863281 346.425781 C 877.863281 315.050781 903.40625 289.507812 934.78125 289.507812 C 966.15625 289.507812 991.699219 315.050781 991.699219 346.425781 C 991.699219 377.800781 966.15625 403.34375 934.78125 403.34375 Z M 934.78125 290.347656 C 903.855469 290.347656 878.707031 315.496094 878.707031 346.425781 C 878.707031 377.351562 903.855469 402.5 934.78125 402.5 C 965.707031 402.5 990.859375 377.351562 990.859375 346.425781 C 990.859375 315.496094 965.707031 290.347656 934.78125 290.347656 Z M 934.78125 290.347656 " fill-opacity="1" fill-rule="nonzero"/></g><g clip-path="url(#a6aed35e73)"><path fill="#e1165a" d="M 1061.066406 403.34375 C 1029.691406 403.34375 1004.148438 377.800781 1004.148438 346.425781 C 1004.148438 315.050781 1029.691406 289.507812 1061.066406 289.507812 C 1092.441406 289.507812 1117.984375 315.050781 1117.984375 346.425781 C 1117.984375 377.800781 1092.441406 403.34375 1061.066406 403.34375 Z M 1061.066406 290.347656 C 1030.140625 290.347656 1004.988281 315.496094 1004.988281 346.425781 C 1004.988281 377.351562 1030.140625 402.5 1061.066406 402.5 C 1091.992188 402.5 1117.144531 377.351562 1117.144531 346.425781 C 1117.144531 315.496094 1091.992188 290.347656 1061.066406 290.347656 Z M 1061.066406 290.347656 " fill-opacity="1" fill-rule="nonzero"/></g><g clip-path="url(#184d1c7ba5)"><path fill="#e1165a" d="M 486.5625 345.859375 C 486.5625 377.28125 461.066406 402.777344 429.644531 402.777344 C 398.21875 402.777344 372.726562 377.28125 372.726562 345.859375 C 372.726562 314.4375 398.21875 288.941406 429.644531 288.941406 C 461.066406 288.941406 486.5625 314.4375 486.5625 345.859375 Z M 486.5625 345.859375 " fill-opacity="1" fill-rule="evenodd"/></g><path fill="#ecf0f1" d="M 391.082031 347.121094 L 421.269531 377.308594 L 468.207031 330.371094 L 458.152344 320.292969 L 421.269531 357.199219 L 401.136719 337.066406 Z M 391.082031 347.121094 " fill-opacity="1" fill-rule="evenodd"/><g clip-path="url(#1fb21f09f1)"><path fill="#e1165a" d="M 233.992188 345.859375 C 233.992188 377.28125 208.496094 402.777344 177.074219 402.777344 C 145.648438 402.777344 120.15625 377.28125 120.15625 345.859375 C 120.15625 314.4375 145.648438 288.941406 177.074219 288.941406 C 208.496094 288.941406 233.992188 314.4375 233.992188 345.859375 Z M 233.992188 345.859375 " fill-opacity="1" fill-rule="evenodd"/></g><path fill="#ecf0f1" d="M 138.511719 347.121094 L 168.699219 377.308594 L 215.636719 330.371094 L 205.582031 320.292969 L 168.699219 357.199219 L 148.566406 337.066406 Z M 138.511719 347.121094 " fill-opacity="1" fill-rule="evenodd"/><g clip-path="url(#75ac468b22)"><path fill="#e1165a" d="M 360.277344 346.425781 C 360.277344 377.847656 334.78125 403.34375 303.359375 403.34375 C 271.933594 403.34375 246.441406 377.847656 246.441406 346.425781 C 246.441406 315 271.933594 289.507812 303.359375 289.507812 C 334.78125 289.507812 360.277344 315 360.277344 346.425781 Z M 360.277344 346.425781 " fill-opacity="1" fill-rule="evenodd"/></g><path fill="#ecf0f1" d="M 264.796875 347.683594 L 294.984375 377.871094 L 341.921875 330.933594 L 331.867188 320.855469 L 294.984375 357.761719 L 274.851562 337.628906 Z M 264.796875 347.683594 " fill-opacity="1" fill-rule="evenodd"/></svg>